<svg width="1366" height="1333" viewBox="0 0 1366 1333" fill="none" xmlns="http://www.w3.org/2000/svg">
<path d="M455.5 527.5C451.5 438.7 530.167 406.167 570 401C645.5 388 657.5 443.5 695 436.5C732.5 429.5 768 391.5 798 359C828 326.5 862 316 909.5 301.5C957 287 1009 311.5 1047 301.5C1077.4 293.5 1128.33 252.5 1150 233C1142 247 1119.4 282.3 1093 311.5C1060 348 971 329 926.5 336.5C882.153 343.974 849.5 362.5 812.5 401C775.5 439.5 745.5 484 690 485C634.5 486 635 453.434 585.5 451.5C521.5 449 510.5 482.5 504 527.5C497.5 572.5 556.5 677.5 534 738C511.5 798.5 472.604 810.044 432 837.5C379.5 873 368 894 361 920C354 946 330 1011.5 311 1041.5C295.8 1065.5 244.333 1091.83 216 1100C228 1091.33 256.4 1067.5 274 1041.5C296 1009 303.352 972.793 315.5 930.5C329 883.5 340.5 839.5 397 807C453.5 774.5 471.68 766.5 486.5 721C504.577 665.5 460.5 638.5 455.5 527.5Z" fill="#0080C8" stroke="#0181C8"/>
<path d="M479.946 404.365C493.466 415.683 498.744 420.412 515.785 427.521C499.647 437.323 495.353 444.9 488.665 457.144C483.832 436.648 481.455 425.13 479.946 404.365Z" fill="#312782"/>
<path d="M449.94 655.141C466.729 649.755 473.545 647.817 488.656 637.205C488.326 656.085 492.439 663.762 499.22 675.954C479.31 669.095 468.302 664.955 449.94 655.141Z" fill="#312782"/>
<path d="M655.744 384.704C650.86 401.646 648.671 408.385 649.061 426.846C633.569 416.051 624.903 415.188 611 414.024C627.79 401.315 637.363 394.482 655.744 384.704Z" fill="#312782"/>
<path d="M828.466 294.108C838.537 308.581 842.387 314.53 856.962 325.866C838.816 331.084 832.681 337.267 823.012 347.324C823.734 326.278 824.466 314.54 828.466 294.108Z" fill="#312782"/>
<path d="M562.788 373.15C572.275 388.685 577.867 397.227 589.174 411.65L545.598 413.95C550.669 396.394 554.7 387.724 562.788 373.15Z" fill="#312782"/>
<path d="M764.79 344.058C782.104 349.673 791.91 352.517 809.882 356.103L778.303 386.218C770.723 369.591 768.138 360.386 764.79 344.058Z" fill="#312782"/>
<path d="M433.081 599.932C445.418 586.549 452.1 578.829 462.869 564L477.03 605.275C458.757 605.213 449.314 603.714 433.081 599.932Z" fill="#312782"/>
<path d="M407.62 473.946C434.281 476.103 449.224 477.359 476.839 470.445C462.048 498.702 461.869 511.387 462.885 536.545C439.584 513.635 426.92 500.433 407.62 473.946Z" fill="#312782"/>
<path d="M724.5 379.5C731.998 405.176 745.416 400.718 761.728 424.049C729 437 718 446 684 437C697.088 407.058 706.643 406.981 724.5 379.5Z" fill="#312782"/>
<path d="M443.998 702.506C465.1 718.943 476.902 728.194 503.78 737.572C475.907 753.074 468.795 763.578 455.835 785.167C448.933 753.226 445.593 735.24 443.998 702.506Z" fill="#312782"/>
</svg>
