<?xml version="1.0" encoding="utf-8"?>
<!-- Generator: Adobe Illustrator 27.5.0, SVG Export Plug-In . SVG Version: 6.00 Build 0)  -->
<svg version="1.1" id="Layer_1" xmlns="http://www.w3.org/2000/svg" xmlns:xlink="http://www.w3.org/1999/xlink" x="0px" y="0px"
	 viewBox="0 0 580 580" style="enable-background:new 0 0 580 580;" xml:space="preserve">
<style type="text/css">
	.st0{fill:#0080C8;stroke:#0181C8;}
	.st1{fill:#312782;}
</style>
<path class="st0" d="M104.6,267.2c-4-88.8,74.7-121.3,114.5-126.5c75.5-13,87.5,42.5,125,35.5s73-45,103-77.5s64-43,111.5-57.5
	s99.5,10,137.5,0c30.4-8,81.3-49,103-68.5c-8,14-30.6,49.3-57,78.5c-33,36.5-122,17.5-166.5,25c-44.3,7.5-77,26-114,64.5
	s-67,83-122.5,84s-41.8-25.9-91.3-27.9c-64-2.5-86.4,29.6-87,72.3c-0.6,41.8,44.8,148.1,22.3,208.6s-61.4,72-102,99.5
	c-52.5,35.5-64,56.5-71,82.5s-31,91.5-50,121.5c-15.2,24-66.7,50.3-95,58.5c12-8.7,40.4-32.5,58-58.5c22-32.5,29.4-68.7,41.5-111
	c13.5-47,25-91,81.5-123.5s74.7-40.5,89.5-86C153.7,405.2,109.6,378.2,104.6,267.2z"/>
<path class="st1" d="M129.1,144.1c13.5,11.3,18.8,16,35.8,23.2c-16.1,9.8-20.4,17.4-27.1,29.6C133,176.3,130.6,164.8,129.1,144.1z"
	/>
<path class="st1" d="M99.1,394.8c16.8-5.4,23.6-7.3,38.7-17.9c-0.3,18.9,3.8,26.6,10.6,38.7C128.5,408.8,117.4,404.6,99.1,394.8z"/>
<path class="st1" d="M304.9,124.4c-4.9,16.9-7.1,23.7-6.7,42.1c-15.5-10.8-24.2-11.7-38.1-12.8C276.9,141,286.5,134.2,304.9,124.4z"
	/>
<path class="st1" d="M477.6,33.8c10.1,14.5,13.9,20.4,28.5,31.8C488,70.8,481.8,77,472.2,87C472.9,66,473.6,54.2,477.6,33.8z"/>
<path class="st1" d="M211.9,112.8c9.5,15.5,15.1,24.1,26.4,38.5l-43.6,2.3C199.8,136.1,203.8,127.4,211.9,112.8z"/>
<path class="st1" d="M413.9,83.7c17.3,5.6,27.1,8.5,45.1,12l-31.6,30.1C419.9,109.3,417.3,100.1,413.9,83.7z"/>
<path class="st1" d="M82.2,339.6c12.3-13.4,19-21.1,29.8-35.9l14.2,41.3C107.9,344.9,98.5,343.4,82.2,339.6z"/>
<path class="st1" d="M56.8,213.6c26.7,2.2,41.6,3.4,69.2-3.5c-14.8,28.3-15,40.9-14,66.1C88.7,253.3,76.1,240.1,56.8,213.6z"/>
<path class="st1" d="M373.6,119.2c7.5,25.7,20.9,21.2,37.2,44.5c-32.7,13-43.7,22-77.7,13C346.2,146.7,355.8,146.7,373.6,119.2z"/>
<path class="st1" d="M93.1,442.2c21.1,16.4,32.9,25.7,59.8,35.1c-27.9,15.5-35,26-47.9,47.6C98.1,492.9,94.7,474.9,93.1,442.2z"/>
</svg>
