<svg width="446" height="268" viewBox="0 0 446 268" fill="none" xmlns="http://www.w3.org/2000/svg">
<path d="M411.097 188.676C392.374 228.44 385.919 250.069 375.2 288.516L306.684 207.508C341.228 197.686 361.845 192.674 411.097 188.676Z" fill="#312782"/>
<path d="M313.024 46.7041C315.036 96.9842 317.126 125.141 325.542 175.202L208 121.794C247.098 86.3368 270.406 70.8917 313.024 46.7041Z" fill="#312782"/>
<path d="M431 376C431 502.473 300.473 556 174 556C47.5268 556 -55 453.473 -55 327C-55 228 55.5268 94 182 94C308.473 94 419.5 217.5 431 376Z" fill="#0080C8"/>
<path d="M87.3605 17.1472C117.858 56.9953 129.525 73.3795 173.5 104.49C119.073 119.194 100.748 136.377 71.8685 164.326C73.6843 106.142 75.6866 73.6847 87.3605 17.1472Z" fill="#312782"/>
<path d="M-192.107 144.074C-101.993 173.498 -51.5301 190.135 50.2239 191.534C-26.8628 268.827 -39.1514 308.993 -58.7857 389.818C-118.2 297.278 -149.803 244.597 -192.107 144.074Z" fill="#312782"/>
<g filter="url(#filter0_f_255_5384)">
<path d="M383.524 305C383.524 361.609 216.479 357 124.524 357C32.5681 357 15.5237 313.5 48.5236 268.5C81.5234 223.5 128.068 163 220.024 163C311.979 163 383.524 248.391 383.524 305Z" fill="#6BCAFF" fill-opacity="0.22"/>
</g>
<path d="M299 339C299 400.856 252.232 451 194.308 451C136.385 451 88 400.856 88 339C88 277.144 147.204 227 194.308 227C241.412 227 299 277.144 299 339Z" fill="#234993"/>
<defs>
<filter id="filter0_f_255_5384" x="-23" y="107" width="462.523" height="306.09" filterUnits="userSpaceOnUse" color-interpolation-filters="sRGB">
<feFlood flood-opacity="0" result="BackgroundImageFix"/>
<feBlend mode="normal" in="SourceGraphic" in2="BackgroundImageFix" result="shape"/>
<feGaussianBlur stdDeviation="28" result="effect1_foregroundBlur_255_5384"/>
</filter>
</defs>
</svg>
