<svg width="185" height="29" viewBox="0 0 185 29" fill="none" xmlns="http://www.w3.org/2000/svg">
<path d="M68.5094 11.3309C68.5094 8.26942 68.5094 5.34823 68.5094 2.41429C68.5094 2.04436 68.5094 1.67443 68.5601 1.31726C68.6741 0.615662 69.0541 0.143681 69.8015 0.130925C71.5369 0.105412 73.2723 0.0671434 75.0077 0.118168C75.8564 0.143681 76.2871 0.768738 76.2997 1.77648C76.3251 7.0193 76.3377 12.2621 76.3631 17.5177C76.3757 20.592 76.4264 23.6535 76.4264 26.7277C76.4264 27.1104 76.2617 27.8248 76.1351 27.8375C75.6537 27.8758 75.0584 27.812 74.6783 27.5569C73.0949 26.4726 71.5876 25.2863 70.0295 24.1765C67.6734 22.5054 65.292 20.8726 62.9106 19.2398C61.7325 18.4234 60.5291 17.6198 59.1864 16.6885C59.1611 17.135 59.1231 17.3901 59.1231 17.658C59.1358 20.1455 59.1738 22.6457 59.1738 25.1332C59.1738 26.4216 58.5404 27.0594 57.2357 27.0977C55.817 27.1359 54.3982 27.1487 52.9795 27.1359C51.9535 27.1359 51.3708 26.5491 51.3708 25.5031C51.3581 17.4539 51.3455 9.40472 51.3455 1.34277C51.3455 0.38605 51.7128 0.143681 52.5742 0.577394C53.1062 0.845275 53.6129 1.20245 54.1069 1.54687C58.7177 4.71042 63.3286 7.87397 67.9394 11.0375C68.0788 11.1396 68.2561 11.2034 68.5094 11.3437V11.3309Z" fill="white"/>
<path d="M151.644 7.96458C151.264 7.63168 150.973 7.32439 150.644 7.08112C149.176 6.0056 147.607 5.42942 145.798 6.21046C145.228 6.45373 144.697 6.83784 144.773 7.46523C144.836 7.95177 145.165 8.59197 145.557 8.79683C146.823 9.42421 148.139 9.93637 149.48 10.3717C151.454 11.0119 153.39 11.7545 154.82 13.2654C158.362 17.0041 158.084 23.2907 153.187 25.8515C148.847 28.1306 144.457 27.9257 140.015 26.2612C138.649 25.7491 137.244 25.2497 136.181 24.1486C135.827 23.7901 135.764 23.6492 136.194 23.2523C137.282 22.2664 138.269 21.1653 139.307 20.1282C139.598 19.8337 139.927 19.5648 140.243 19.296C140.635 18.9759 140.99 19.0143 141.47 19.2319C142.685 19.7825 143.925 20.3075 145.191 20.7172C146.304 21.0757 147.38 20.7556 148.366 20.1666C149.366 19.5648 149.518 18.3485 148.506 17.7979C147.088 17.0297 145.557 16.4535 144.039 15.9157C142.369 15.314 140.724 14.6098 139.471 13.355C137.244 11.1399 136.928 7.75972 138.396 4.80204C139.813 1.90837 142.268 0.666405 145.254 0.128645C147.696 -0.319488 149.872 0.512759 152.036 1.39622C152.669 1.6523 153.263 1.998 153.871 2.30529C154.744 2.76623 154.921 3.23997 154.402 4.09783C153.947 4.84045 153.402 5.51905 152.896 6.22326C152.504 6.77382 152.112 7.33719 151.656 7.99019L151.644 7.96458Z" fill="white"/>
<path d="M169.364 9.96605C169.769 9.50682 170.225 9.07311 170.593 8.56286C172.29 6.22846 173.937 3.88131 175.634 1.54691C176.698 0.0927014 177.357 -0.0858863 178.763 0.398852C180.004 0.832564 181.296 1.07493 182.55 1.48313C184.083 1.98063 184.273 2.69498 183.298 3.98336C181.195 6.76422 179.08 9.54509 176.99 12.326C176.191 13.3847 176.166 13.4102 176.977 14.4945C179.384 17.7346 181.816 20.9747 184.235 24.202C185.122 25.3756 184.919 26.1793 183.513 26.6002C181.841 27.1105 180.131 27.5059 178.421 27.9141C177.56 28.1182 176.964 27.6972 176.495 27.0084C174.507 24.0872 172.505 21.166 170.504 18.2449C170.238 17.8494 169.896 17.5178 169.427 16.9692C169.377 17.4285 169.326 17.6198 169.339 17.8111C169.389 20.3752 169.453 22.9519 169.503 25.5159C169.529 26.9957 169.149 27.3783 167.666 27.4166C166.324 27.4549 164.981 27.5314 163.651 27.5442C162.169 27.5569 161.814 27.2125 161.789 25.7583C161.624 18.3979 161.46 11.0248 161.295 3.66445C161.295 3.16696 161.282 2.66947 161.308 2.17197C161.371 1.34281 161.852 0.807052 162.676 0.679489C164.107 0.462633 165.538 0.23302 166.97 0.0799451C168.629 -0.0986425 169.047 0.309558 169.06 1.96787C169.073 4.40432 169.098 6.84076 169.123 9.28996C169.123 9.49406 169.161 9.68541 169.187 9.88951C169.25 9.91502 169.326 9.94053 169.389 9.95329L169.364 9.96605Z" fill="white"/>
<path d="M47.7861 24.4188C47.4821 24.7887 47.2667 25.2607 46.8994 25.4521C45.164 26.3705 43.3906 27.238 41.6172 28.0799C40.9331 28.3988 40.3631 28.1564 39.9831 27.4421C39.3751 26.3067 38.7797 25.1714 38.2351 24.0106C37.9944 23.5004 37.6777 23.2963 37.1457 23.2963C34.0422 23.309 30.9388 23.2963 27.8353 23.36C27.4933 23.36 27.012 23.7172 26.8346 24.0361C26.2013 25.1459 25.6692 26.3195 25.0992 27.4676C24.7065 28.2712 24.0352 28.6156 23.2245 28.2712C21.5904 27.5569 19.969 26.8042 18.3856 25.9878C17.4483 25.5159 17.3469 24.8143 17.8536 23.8958C19.1583 21.5104 20.3617 19.0612 21.7551 16.7268C24.1492 12.6958 26.6319 8.71587 29.102 4.73591C29.7734 3.63888 30.5081 2.58011 31.2555 1.54685C32.0662 0.424299 33.1049 0.143662 33.9789 1.52134C36.829 5.97327 39.7678 10.3869 42.5672 14.8644C44.1126 17.3263 45.4807 19.9031 46.8994 22.4288C47.2287 23.0156 47.4567 23.6662 47.7734 24.4061L47.7861 24.4188ZM29.7607 16.9692H35.3596C34.3716 15.4512 33.4849 14.099 32.4842 12.581C31.5595 14.0352 30.7614 15.2726 29.9634 16.5227C29.8874 16.6503 29.8367 16.7906 29.7607 16.9692Z" fill="white"/>
<path d="M127.12 27.5569C126.449 27.4676 126.056 27.2124 125.778 26.5746C125.233 25.3628 124.587 24.1765 123.89 23.0412C123.7 22.7222 123.168 22.4416 122.788 22.4289C119.824 22.4033 116.847 22.4289 113.87 22.4799C113.199 22.4799 112.756 22.8498 112.49 23.5514C112.046 24.6995 111.451 25.7837 110.894 26.8808C110.577 27.5058 110.007 27.7227 109.361 27.5186C108.766 27.34 108.196 27.0594 107.626 26.8042C106.625 26.345 105.649 25.822 104.636 25.4011C103.521 24.9418 103.154 24.1765 103.724 23.1049C105.307 20.12 106.891 17.135 108.55 14.2011C110.121 11.4202 111.78 8.6776 113.44 5.96052C114.25 4.64663 115.188 3.40927 116.037 2.13364C116.366 1.63615 116.619 1.07487 116.961 0.590137C117.43 -0.0859446 118.393 -0.200751 119.026 0.347768C119.305 0.590137 119.545 0.870775 119.748 1.17692C122.066 4.67214 124.435 8.12909 126.664 11.6753C128.653 14.8516 130.477 18.1172 132.364 21.3573C132.668 21.8803 133.011 22.3778 133.264 22.9263C133.707 23.8831 133.391 24.674 132.44 25.1332C131.174 25.7582 129.92 26.4216 128.64 27.0339C128.146 27.2635 127.614 27.391 127.095 27.5569H127.12ZM115.669 15.9614C115.72 16.038 115.771 16.1273 115.821 16.2038H120.875C120.419 14.5965 119.241 13.4484 118.253 11.8539C117.316 13.3464 116.493 14.6475 115.669 15.9614Z" fill="white"/>
<path d="M18.6135 2.26124C18.4995 3.85577 18.1955 5.38652 17.8788 6.879C17.6888 7.79746 17.2708 8.05258 16.3714 8.10361C14.2814 8.23117 12.0646 8.1929 9.96186 8.21841C9.27784 8.21841 8.98649 8.49905 8.98649 9.14962C8.98649 10.7059 9.15117 10.8717 10.7219 10.8972C11.4566 10.8972 12.356 10.8462 13.154 10.8972C13.952 10.9483 14.5474 11.3309 14.5474 12.2239C14.5474 13.8694 14.6107 15.4385 14.4967 17.1223C14.446 17.8494 13.99 18.2831 13.1033 18.3469C12.2039 18.4107 10.8612 18.3851 9.83519 18.3979C9.20184 18.3979 8.88516 18.5892 8.88516 19.3291C8.88516 21.638 8.91049 24.151 8.83449 26.4471C8.78382 27.863 8.41647 28.2968 6.97242 28.3478C5.52836 28.3988 3.76763 28.335 2.27291 28.3605C1.48755 28.3733 1.03153 28.0034 0.968193 27.238C0.828855 25.72 0.765519 24.202 0.714851 22.684C0.499509 16.2038 0.208165 9.57058 0.00549058 3.11591C-0.045178 1.55965 0.233499 1.3683 1.74089 1.31728C4.16031 1.24074 6.84575 1.31728 9.34117 1.26625C12.0393 1.08766 15.2187 1.39381 17.7775 1.67445C18.3728 1.73823 18.6262 1.96785 18.6009 2.24848L18.6135 2.26124Z" fill="white"/>
<path d="M91.9311 0.0799561C94.8445 0.0799561 97.7706 0.0799561 100.684 0.0799561C101.127 0.0799561 101.583 0.105469 102.014 0.182006C102.736 0.296812 103.129 0.730525 103.141 1.47039C103.141 2.86082 103.179 4.25125 103.141 5.64169C103.116 6.6877 102.761 6.98109 101.735 6.99385C100.19 7.0066 98.632 7.03212 97.0866 7.01936C96.5039 7.01936 96.3266 7.22346 96.3266 7.79749C96.3899 13.2189 96.4279 18.6531 96.4659 24.0745C96.4659 24.4954 96.4912 24.9164 96.4279 25.3246C96.3139 26.0389 95.9339 26.5364 95.1612 26.6257C93.3624 26.8171 91.5637 27.0339 89.7523 27.1615C88.4096 27.2508 87.9916 26.8171 87.9789 25.4777C87.9409 22.1993 87.9409 18.921 87.9156 15.6426C87.9029 13.1041 87.8396 10.5528 87.8522 8.01435C87.8522 7.33827 87.5989 7.13417 86.9782 7.14692C85.3948 7.15968 83.8241 7.14692 82.2407 7.14692C80.7586 7.14692 80.3786 6.76424 80.3533 5.28451C80.3406 4.28952 80.3533 3.29453 80.3533 2.29955C80.3533 0.78155 80.86 0.245787 82.4434 0.207519C84.7361 0.156494 87.0162 0.156494 89.309 0.143737C90.1703 0.143737 91.0443 0.143737 91.9184 0.143737V0.105469L91.9311 0.0799561Z" fill="white"/>
</svg>
