<svg width="130" height="65" viewBox="0 0 130 65" fill="none" xmlns="http://www.w3.org/2000/svg">
<g clip-path="url(#clip0_354_1830)">
<path d="M87.3386 35.9451L91.5007 31.0701L95.7278 35.9451H87.3386Z" fill="#312782"/>
<path d="M94.2972 14.8201L94.8825 18.3951L67.1787 45.5651H63.2117L94.2972 14.8201Z" fill="#312782"/>
<path d="M63.2117 45.5651L94.3623 14.7551C85.9731 17.2251 76.3482 21.9051 72.1211 26.5851C66.5934 32.6301 63.927 37.3751 63.2117 45.5651Z" fill="#0080C8"/>
<path d="M37.4587 34.9052L45.3277 31.7852L45.3927 40.2352L37.4587 34.9052Z" fill="#312782"/>
<path d="M27.5088 23.01L35.6379 19.24L36.2882 27.885L27.5088 23.01Z" fill="#312782"/>
<path d="M14.0471 26.78L17.2987 18.72L24.3873 23.92L14.0471 26.78Z" fill="#312782"/>
<path d="M53.1316 45.5651L50.075 37.9601C44.092 39.7801 39.8649 37.1801 38.5643 32.3051C36.093 23.2701 27.8339 21.2551 21.3957 23.9201C18.4692 25.0901 13.7869 27.6901 8.71436 21.7751C5.85293 18.4601 5.13757 15.9901 4.16208 12.8701L0 18.0701C0.585293 19.6951 1.36568 21.3201 2.27614 22.8151C9.75488 34.7751 16.3232 32.1101 22.6313 29.2501C26.5983 27.4301 31.6708 28.6001 34.012 35.8151C35.963 42.0551 41.2306 47.5151 48.1891 46.6051C49.8149 46.4101 51.5058 46.0851 53.1316 45.5651Z" fill="#0080C8"/>
<path d="M46.4982 42.8351C39.6698 43.3551 36.4832 39.1301 34.5973 33.8651C32.8414 29.1201 27.899 24.7651 21.1356 28.0151C13.982 31.4601 8.97449 30.6151 3.12156 21.0601C2.34117 19.6301 1.62581 18.1351 1.10555 16.6401L0 18.0051C0.585293 19.6301 1.36568 21.2551 2.27614 22.7501C9.75488 34.7751 16.3232 32.1101 22.6313 29.2501C26.5983 27.4301 31.6708 28.6001 34.012 35.8151C35.963 42.0551 41.2306 47.5151 48.1891 46.6051C49.8799 46.4101 51.5058 46.0851 53.1316 45.5001L52.8064 44.6551L51.1806 41.6651C49.6848 42.3801 48.1241 42.7051 46.4982 42.8351Z" fill="#312782"/>
<path d="M50.9856 42.0552C50.1401 39.9752 49.6849 38.0902 50.0751 37.9602C50.4653 37.8302 51.4408 39.4552 52.2862 41.5352C53.1316 43.6152 53.5218 45.4352 53.1316 45.5652C52.7414 45.6302 51.831 44.1352 50.9856 42.0552Z" fill="#312782"/>
<path d="M9.03944 6.69507L8.12899 14.1051L2.146 9.62007L9.03944 6.69507Z" fill="#312782"/>
<path d="M49.4897 16.9001L51.3107 28.2101L61.0655 17.7451L49.4897 16.9001Z" fill="#312782"/>
<path d="M69.3896 7.08496L61.0654 17.68H77.8438L69.3896 7.08496Z" fill="#312782"/>
<path d="M89.5498 35.88C89.4848 46.995 80.3802 55.9 69.3247 55.835C58.2692 55.77 49.2947 46.67 49.3597 35.555C49.4248 24.44 58.4643 15.535 69.5848 15.6C80.7054 15.73 89.6149 24.765 89.5498 35.88Z" fill="#0080C8"/>
<path d="M69.5197 51.025C60.2851 51.025 52.4161 45.76 49.5547 38.415C50.9854 49.4 61.1305 57.135 72.121 55.64C80.9004 54.47 87.9239 47.645 89.2896 38.935C86.233 46.02 78.5592 51.025 69.5197 51.025Z" fill="#312782"/>
<path d="M130 35.23H112.051L104.312 44.525H124.993L126.423 46.085L130 35.23Z" fill="#312782"/>
<path d="M95.7278 35.7501L99.9549 30.8751L102.296 32.9551L98.5892 20.1501L122.911 35.7501H95.7278Z" fill="#312782"/>
<path d="M87.2086 35.6851H110.295V41.7951H87.2086C86.6883 41.7951 86.2981 40.4301 86.2981 38.7401C86.2981 37.0501 86.6883 35.6851 87.2086 35.6851Z" fill="#0080C8"/>
<path d="M124.017 35.6201H106.068L100.996 41.7301L119.27 41.0801L120.961 43.8101L124.017 35.6201Z" fill="#312782"/>
<path d="M126.228 35.23H108.279L100.54 44.525H121.221L122.716 46.085L126.228 35.23Z" fill="#0080C8"/>
<path d="M115.108 37.18C115.043 36.855 115.173 36.53 115.498 36.465C115.823 36.4 116.148 36.53 116.213 36.855C116.278 37.18 116.148 37.505 115.823 37.57C115.563 37.7 115.173 37.505 115.108 37.18Z" fill="#312782"/>
<path d="M92.1511 7.4751L92.6713 11.0501L65.0325 38.2201H61.0005L92.1511 7.4751Z" fill="#312782"/>
<path d="M61.0005 38.2202L92.1511 7.41016C83.7619 9.88016 74.1371 14.5602 69.9099 19.2402C64.4472 25.2852 61.7809 29.9652 61.0005 38.2202Z" fill="#0080C8"/>
<path d="M80.1852 26.8452C82.1362 25.9352 84.1522 25.2202 86.2332 24.7002C84.9976 22.7502 83.3718 20.9952 81.5509 19.5652L65.6179 37.4402C70.5604 32.4352 74.5274 29.4452 80.1852 26.8452Z" fill="#312782"/>
</g>
<defs>
<clipPath id="clip0_354_1830">
<rect width="130" height="65" fill="white"/>
</clipPath>
</defs>
</svg>
