<svg width="291" height="65" viewBox="0 0 291 65" fill="none" xmlns="http://www.w3.org/2000/svg">
<path d="M171.734 34.9637C171.306 34.5889 170.979 34.2429 170.608 33.969C168.956 32.758 167.189 32.1093 165.152 32.9887C164.511 33.2626 163.912 33.6951 163.998 34.4015C164.069 34.9493 164.44 35.6701 164.881 35.9008C166.306 36.6072 167.787 37.1838 169.298 37.674C171.52 38.3948 173.7 39.2309 175.31 40.932C179.299 45.1415 178.985 52.2199 173.472 55.1031C168.585 57.6692 163.642 57.4386 158.641 55.5645C157.103 54.9878 155.521 54.4256 154.324 53.1858C153.926 52.7821 153.854 52.6236 154.339 52.1767C155.564 51.0666 156.675 49.8268 157.843 48.6591C158.171 48.3275 158.541 48.0248 158.898 47.722C159.339 47.3616 159.738 47.4049 160.28 47.65C161.647 48.2699 163.043 48.8609 164.468 49.3222C165.722 49.7259 166.933 49.3655 168.044 48.7024C169.169 48.0248 169.34 46.6552 168.201 46.0354C166.605 45.1704 164.881 44.5217 163.172 43.9162C161.291 43.2386 159.439 42.4457 158.029 41.0329C155.521 38.5389 155.165 34.7331 156.818 31.4029C158.413 28.1448 161.177 26.7465 164.539 26.141C167.289 25.6364 169.739 26.5735 172.175 27.5682C172.888 27.8565 173.557 28.2458 174.241 28.5918C175.224 29.1107 175.424 29.6441 174.84 30.61C174.327 31.4462 173.714 32.2102 173.144 33.0031C172.703 33.623 172.261 34.2573 171.748 34.9925L171.734 34.9637Z" fill="white"/>
<g clip-path="url(#clip0_231_21848)">
<path d="M248.339 35.9451L252.501 31.0701L256.728 35.9451H248.339Z" fill="#312782"/>
<path d="M255.297 14.8201L255.883 18.3951L228.179 45.5651H224.212L255.297 14.8201Z" fill="#312782"/>
<path d="M224.212 45.5651L255.362 14.7551C246.973 17.2251 237.348 21.9051 233.121 26.5851C227.593 32.6301 224.927 37.3751 224.212 45.5651Z" fill="#0080C8"/>
<path d="M198.459 34.9052L206.328 31.7852L206.393 40.2352L198.459 34.9052Z" fill="#312782"/>
<path d="M188.509 23.01L196.638 19.24L197.288 27.885L188.509 23.01Z" fill="#312782"/>
<path d="M175.047 26.78L178.299 18.72L185.387 23.92L175.047 26.78Z" fill="#312782"/>
<path d="M214.132 45.5651L211.075 37.9601C205.092 39.7801 200.865 37.1801 199.564 32.3051C197.093 23.2701 188.834 21.2551 182.396 23.9201C179.469 25.0901 174.787 27.6901 169.714 21.7751C166.853 18.4601 166.138 15.9901 165.162 12.8701L161 18.0701C161.585 19.6951 162.366 21.3201 163.276 22.8151C170.755 34.7751 177.323 32.1101 183.631 29.2501C187.598 27.4301 192.671 28.6001 195.012 35.8151C196.963 42.0551 202.231 47.5151 209.189 46.6051C210.815 46.4101 212.506 46.0851 214.132 45.5651Z" fill="#0080C8"/>
<path d="M207.498 42.8351C200.67 43.3551 197.483 39.1301 195.597 33.8651C193.841 29.1201 188.899 24.7651 182.136 28.0151C174.982 31.4601 169.974 30.6151 164.122 21.0601C163.341 19.6301 162.626 18.1351 162.106 16.6401L161 18.0051C161.585 19.6301 162.366 21.2551 163.276 22.7501C170.755 34.7751 177.323 32.1101 183.631 29.2501C187.598 27.4301 192.671 28.6001 195.012 35.8151C196.963 42.0551 202.231 47.5151 209.189 46.6051C210.88 46.4101 212.506 46.0851 214.132 45.5001L213.806 44.6551L212.181 41.6651C210.685 42.3801 209.124 42.7051 207.498 42.8351Z" fill="#312782"/>
<path d="M211.986 42.0552C211.14 39.9752 210.685 38.0902 211.075 37.9602C211.465 37.8302 212.441 39.4552 213.286 41.5352C214.132 43.6152 214.522 45.4352 214.132 45.5652C213.741 45.6302 212.831 44.1352 211.986 42.0552Z" fill="#312782"/>
<path d="M170.039 6.69507L169.129 14.1051L163.146 9.62007L170.039 6.69507Z" fill="#312782"/>
<path d="M210.49 16.9001L212.311 28.2101L222.066 17.7451L210.49 16.9001Z" fill="#312782"/>
<path d="M230.39 7.08496L222.065 17.68H238.844L230.39 7.08496Z" fill="#312782"/>
<path d="M250.55 35.88C250.485 46.995 241.38 55.9 230.325 55.835C219.269 55.77 210.295 46.67 210.36 35.555C210.425 24.44 219.464 15.535 230.585 15.6C241.705 15.73 250.615 24.765 250.55 35.88Z" fill="#0080C8"/>
<path d="M230.52 51.025C221.285 51.025 213.416 45.76 210.555 38.415C211.985 49.4 222.13 57.135 233.121 55.64C241.9 54.47 248.924 47.645 250.29 38.935C247.233 46.02 239.559 51.025 230.52 51.025Z" fill="#312782"/>
<path d="M291 35.23H273.051L265.312 44.525H285.993L287.423 46.085L291 35.23Z" fill="#312782"/>
<path d="M256.728 35.7501L260.955 30.8751L263.296 32.9551L259.589 20.1501L283.911 35.7501H256.728Z" fill="#312782"/>
<path d="M248.209 35.6851H271.295V41.7951H248.209C247.688 41.7951 247.298 40.4301 247.298 38.7401C247.298 37.0501 247.688 35.6851 248.209 35.6851Z" fill="#0080C8"/>
<path d="M285.017 35.6201H267.068L261.996 41.7301L280.27 41.0801L281.961 43.8101L285.017 35.6201Z" fill="#312782"/>
<path d="M287.228 35.23H269.279L261.54 44.525H282.221L283.716 46.085L287.228 35.23Z" fill="#0080C8"/>
<path d="M276.108 37.18C276.043 36.855 276.173 36.53 276.498 36.465C276.823 36.4 277.148 36.53 277.213 36.855C277.278 37.18 277.148 37.505 276.823 37.57C276.563 37.7 276.173 37.505 276.108 37.18Z" fill="#312782"/>
<path d="M253.151 7.4751L253.671 11.0501L226.033 38.2201H222L253.151 7.4751Z" fill="#312782"/>
<path d="M222 38.2202L253.151 7.41016C244.762 9.88016 235.137 14.5602 230.91 19.2402C225.447 25.2852 222.781 29.9652 222 38.2202Z" fill="#0080C8"/>
<path d="M241.185 26.8452C243.136 25.9352 245.152 25.2202 247.233 24.7002C245.998 22.7502 244.372 20.9952 242.551 19.5652L226.618 37.4402C231.56 32.4352 235.527 29.4452 241.185 26.8452Z" fill="#312782"/>
</g>
<g clip-path="url(#clip1_231_21848)">
<path d="M78.1306 38.7539C78.1306 35.3069 78.1306 32.0178 78.1306 28.7144C78.1306 28.2979 78.1306 27.8814 78.1877 27.4792C78.316 26.6893 78.7439 26.1579 79.5854 26.1435C81.5393 26.1148 83.4932 26.0717 85.4472 26.1291C86.4028 26.1579 86.8877 26.8616 86.9019 27.9963C86.9305 33.8993 86.9447 39.8024 86.9733 45.7198C86.9875 49.1812 87.0446 52.6283 87.0446 56.0897C87.0446 56.5205 86.8592 57.3248 86.7165 57.3392C86.1746 57.3823 85.5042 57.3105 85.0764 57.0232C83.2936 55.8024 81.5964 54.4667 79.8421 53.2171C77.1893 51.3356 74.508 49.4972 71.8267 47.6588C70.5003 46.7396 69.1454 45.8347 67.6336 44.7862C67.605 45.2889 67.5622 45.5762 67.5622 45.8778C67.5765 48.6785 67.6193 51.4936 67.6193 54.2943C67.6193 55.7449 66.9062 56.4631 65.4372 56.5062C63.8398 56.5493 62.2424 56.5636 60.645 56.5493C59.4898 56.5493 58.8337 55.8886 58.8337 54.7108C58.8194 45.648 58.8052 36.5852 58.8052 27.508C58.8052 26.4308 59.2188 26.1579 60.1886 26.6462C60.7876 26.9478 61.3581 27.35 61.9144 27.7378C67.1058 31.2997 72.2973 34.8616 77.4888 38.4236C77.6457 38.5385 77.8454 38.6103 78.1306 38.7683V38.7539Z" fill="white"/>
<path d="M191.686 37.2173C192.142 36.7003 192.655 36.212 193.069 35.6374C194.98 33.0091 196.834 30.3664 198.745 27.738C199.943 26.1006 200.685 25.8996 202.268 26.4453C203.666 26.9337 205.121 27.2066 206.533 27.6662C208.258 28.2263 208.472 29.0306 207.374 30.4813C205.007 33.6123 202.625 36.7434 200.272 39.8744C199.373 41.0665 199.344 41.0953 200.257 42.3161C202.967 45.9642 205.705 49.6123 208.43 53.2461C209.428 54.5674 209.2 55.4723 207.617 55.9462C205.734 56.5208 203.809 56.966 201.883 57.4256C200.913 57.6554 200.243 57.1814 199.715 56.4059C197.476 53.1168 195.223 49.8278 192.969 46.5387C192.67 46.0935 192.285 45.72 191.757 45.1024C191.7 45.6195 191.643 45.8349 191.657 46.0504C191.714 48.9373 191.785 51.8385 191.842 54.7254C191.871 56.3915 191.443 56.8224 189.774 56.8655C188.263 56.9085 186.751 56.9947 185.253 57.0091C183.585 57.0234 183.185 56.6357 183.157 54.9983C182.971 46.7111 182.786 38.4094 182.6 30.1222C182.6 29.562 182.586 29.0019 182.615 28.4418C182.686 27.5082 183.228 26.905 184.155 26.7613C185.767 26.5172 187.378 26.2586 188.99 26.0863C190.858 25.8852 191.329 26.3448 191.343 28.212C191.358 30.9552 191.386 33.6985 191.415 36.4561C191.415 36.6859 191.457 36.9014 191.486 37.1312C191.557 37.1599 191.643 37.1886 191.714 37.203L191.686 37.2173Z" fill="white"/>
<path d="M54.7976 53.49C54.4553 53.9065 54.2128 54.4379 53.7992 54.6534C51.8453 55.6875 49.8486 56.6642 47.8518 57.6121C47.0817 57.9712 46.4399 57.6983 46.012 56.894C45.3274 55.6157 44.6571 54.3374 44.0438 53.0304C43.7728 52.4559 43.4163 52.2261 42.8172 52.2261C39.323 52.2405 35.8287 52.2261 32.3344 52.2979C31.9494 52.2979 31.4074 52.7001 31.2077 53.0591C30.4946 54.3087 29.8956 55.63 29.2538 56.9227C28.8116 57.8275 28.0557 58.2153 27.143 57.8275C25.3031 57.0232 23.4775 56.1758 21.6948 55.2566C20.6393 54.7252 20.5252 53.9353 21.0957 52.9011C22.5648 50.2153 23.9197 47.4577 25.4885 44.8293C28.1841 40.2907 30.9795 35.8096 33.7607 31.3284C34.5166 30.0932 35.3438 28.9011 36.1853 27.7378C37.0981 26.4739 38.2676 26.1579 39.2517 27.709C42.4607 32.7216 45.7695 37.6911 48.9215 42.7324C50.6615 45.5044 52.2018 48.4056 53.7992 51.2494C54.17 51.9101 54.4268 52.6426 54.7833 53.4756L54.7976 53.49ZM34.5023 45.1022H40.8063C39.6938 43.3931 38.6954 41.8706 37.5687 40.1615C36.5276 41.7988 35.629 43.192 34.7305 44.5995C34.6449 44.7432 34.5879 44.9011 34.5023 45.1022Z" fill="white"/>
<path d="M144.122 57.0234C143.367 56.9229 142.924 56.6357 142.611 55.9175C141.997 54.5531 141.27 53.2173 140.486 51.9391C140.272 51.58 139.673 51.264 139.245 51.2497C135.907 51.2209 132.556 51.2497 129.204 51.3071C128.448 51.3071 127.949 51.7236 127.65 52.5136C127.15 53.8062 126.48 55.027 125.852 56.2622C125.496 56.966 124.854 57.2102 124.127 56.9804C123.456 56.7793 122.815 56.4633 122.173 56.1761C121.046 55.659 119.948 55.0701 118.807 54.5962C117.552 54.0791 117.138 53.2173 117.78 52.0109C119.563 48.65 121.346 45.2892 123.214 41.9857C124.982 38.8547 126.851 35.7667 128.719 32.7075C129.632 31.2281 130.687 29.8349 131.643 28.3987C132.014 27.8385 132.299 27.2066 132.684 26.6608C133.212 25.8996 134.296 25.7703 135.009 26.3879C135.323 26.6608 135.594 26.9768 135.822 27.3215C138.432 31.2568 141.099 35.1491 143.609 39.1419C145.848 42.7182 147.902 46.3951 150.027 50.0432C150.369 50.6321 150.754 51.1922 151.04 51.8098C151.539 52.887 151.182 53.7775 150.113 54.2945C148.686 54.9983 147.274 55.7452 145.834 56.4346C145.278 56.6931 144.679 56.8367 144.094 57.0234H144.122ZM131.229 43.9678C131.286 44.054 131.343 44.1545 131.4 44.2407H137.091C136.578 42.431 135.251 41.1383 134.139 39.343C133.083 41.0234 132.156 42.4884 131.229 43.9678Z" fill="white"/>
<path d="M21.9512 28.5422C21.8228 30.3375 21.4805 32.061 21.124 33.7414C20.91 34.7755 20.4394 35.0628 19.4268 35.1203C17.0735 35.2639 14.5776 35.2208 12.21 35.2495C11.4399 35.2495 11.1118 35.5655 11.1118 36.298C11.1118 38.0502 11.2972 38.2369 13.0658 38.2657C13.893 38.2657 14.9056 38.2082 15.8041 38.2657C16.7026 38.3231 17.373 38.754 17.373 39.7594C17.373 41.6122 17.4443 43.3788 17.3159 45.2746C17.2589 46.0933 16.7454 46.5817 15.7471 46.6535C14.7344 46.7253 13.2226 46.6966 12.0674 46.7109C11.3543 46.7109 10.9977 46.9264 10.9977 47.7594C10.9977 50.359 11.0262 53.1885 10.9407 55.7737C10.8836 57.368 10.47 57.8563 8.84411 57.9138C7.21821 57.9712 5.23574 57.8994 3.55279 57.9281C2.66853 57.9425 2.15508 57.526 2.08377 56.6642C1.92689 54.9551 1.85557 53.2459 1.79852 51.5368C1.55606 44.2405 1.22803 36.772 0.999834 29.5045C0.942785 27.7522 1.25656 27.5368 2.95377 27.4793C5.67787 27.3931 8.70149 27.4793 11.5112 27.4219C14.549 27.2208 18.1289 27.5655 21.0099 27.8815C21.6802 27.9533 21.9654 28.2118 21.9369 28.5278L21.9512 28.5422Z" fill="white"/>
<path d="M104.502 26.0862C107.782 26.0862 111.077 26.0862 114.357 26.0862C114.856 26.0862 115.369 26.1149 115.854 26.2011C116.667 26.3303 117.109 26.8187 117.124 27.6517C117.124 29.2172 117.167 30.7828 117.124 32.3483C117.095 33.526 116.696 33.8564 115.541 33.8707C113.801 33.8851 112.046 33.9138 110.306 33.8995C109.65 33.8995 109.451 34.1293 109.451 34.7756C109.522 40.8797 109.565 46.9982 109.607 53.1023C109.607 53.5763 109.636 54.0503 109.565 54.5099C109.436 55.3142 109.008 55.8743 108.138 55.9749C106.113 56.1903 104.088 56.4345 102.048 56.5781C100.537 56.6786 100.066 56.1903 100.052 54.6822C100.009 50.991 100.009 47.2998 99.9804 43.6086C99.9662 40.7505 99.8948 37.8779 99.9091 35.0198C99.9091 34.2585 99.6239 34.0287 98.925 34.0431C97.1422 34.0575 95.3737 34.0431 93.5909 34.0431C91.9222 34.0431 91.4943 33.6122 91.4658 31.9461C91.4515 30.8259 91.4658 29.7056 91.4658 28.5853C91.4658 26.8761 92.0363 26.2729 93.8191 26.2298C96.4006 26.1724 98.9678 26.1724 101.549 26.158C102.519 26.158 103.503 26.158 104.487 26.158V26.1149L104.502 26.0862Z" fill="white"/>
</g>
<defs>
<clipPath id="clip0_231_21848">
<rect width="130" height="65" fill="white" transform="translate(161)"/>
</clipPath>
<clipPath id="clip1_231_21848">
<rect width="209" height="32" fill="white" transform="translate(0 26)"/>
</clipPath>
</defs>
</svg>
