<svg width="233" height="50" viewBox="0 0 233 50" fill="none" xmlns="http://www.w3.org/2000/svg">
<rect width="233" height="50" fill="#030D32"/>
<path d="M105.918 15.9482C105.918 14.6112 105.918 13.3355 105.918 12.0542C105.918 11.8927 105.918 11.7311 105.941 11.5752C105.99 11.2688 106.156 11.0627 106.483 11.0571C107.241 11.0459 107.998 11.0292 108.756 11.0515C109.127 11.0627 109.315 11.3356 109.32 11.7757C109.332 14.0653 109.337 16.3548 109.348 18.65C109.354 19.9925 109.376 21.3295 109.376 22.672C109.376 22.8391 109.304 23.1511 109.249 23.1566C109.038 23.1734 108.778 23.1455 108.612 23.0341C107.921 22.5606 107.263 22.0425 106.582 21.5579C105.553 20.8281 104.513 20.115 103.473 19.402C102.959 19.0455 102.433 18.6945 101.847 18.2879C101.836 18.4828 101.819 18.5942 101.819 18.7112C101.825 19.7975 101.841 20.8894 101.841 21.9757C101.841 22.5383 101.565 22.8168 100.995 22.8335C100.376 22.8503 99.756 22.8558 99.1365 22.8503C98.6884 22.8503 98.4339 22.594 98.4339 22.1372C98.4284 18.6221 98.4229 15.107 98.4229 11.5863C98.4229 11.1685 98.5833 11.0627 98.9594 11.2521C99.1918 11.369 99.413 11.525 99.6288 11.6754C101.642 13.057 103.656 14.4385 105.669 15.82C105.73 15.8646 105.808 15.8925 105.918 15.9537V15.9482Z" fill="white"/>
<path d="M142.223 14.4781C142.058 14.3328 141.931 14.1986 141.787 14.0923C141.146 13.6226 140.461 13.371 139.671 13.7121C139.422 13.8183 139.19 13.9861 139.223 14.2601C139.251 14.4725 139.394 14.7521 139.566 14.8416C140.118 15.1156 140.693 15.3392 141.279 15.5293C142.141 15.8089 142.986 16.1332 143.61 16.793C145.158 18.4257 145.036 21.1711 142.898 22.2894C141.002 23.2847 139.085 23.1952 137.145 22.4683C136.549 22.2447 135.935 22.0266 135.471 21.5458C135.316 21.3892 135.289 21.3277 135.477 21.1543C135.952 20.7238 136.383 20.2429 136.836 19.79C136.963 19.6614 137.107 19.544 137.245 19.4266C137.416 19.2868 137.571 19.3036 137.781 19.3986C138.311 19.6391 138.853 19.8683 139.405 20.0472C139.892 20.2038 140.361 20.064 140.792 19.8068C141.229 19.544 141.295 19.0128 140.853 18.7724C140.234 18.4369 139.566 18.1853 138.903 17.9504C138.173 17.6876 137.455 17.3801 136.908 16.8321C135.935 15.8648 135.797 14.3887 136.438 13.097C137.057 11.8334 138.129 11.291 139.433 11.0562C140.499 10.8605 141.45 11.2239 142.395 11.6097C142.671 11.7215 142.931 11.8725 143.196 12.0067C143.577 12.208 143.655 12.4149 143.428 12.7895C143.229 13.1138 142.992 13.4102 142.77 13.7177C142.599 13.9581 142.428 14.2042 142.229 14.4893L142.223 14.4781Z" fill="white"/>
<path d="M149.962 15.352C150.139 15.1515 150.338 14.9621 150.498 14.7392C151.24 13.7198 151.959 12.6948 152.7 11.6753C153.165 11.0403 153.452 10.9623 154.066 11.174C154.609 11.3634 155.173 11.4692 155.72 11.6475C156.39 11.8648 156.473 12.1767 156.047 12.7394C155.129 13.9538 154.205 15.1682 153.292 16.3826C152.944 16.845 152.932 16.8561 153.287 17.3296C154.338 18.7446 155.4 20.1595 156.456 21.5689C156.843 22.0814 156.755 22.4324 156.141 22.6162C155.411 22.839 154.664 23.0117 153.917 23.19C153.541 23.2791 153.281 23.0953 153.076 22.7945C152.208 21.5188 151.334 20.2431 150.46 18.9674C150.344 18.7947 150.194 18.6499 149.99 18.4103C149.967 18.6109 149.945 18.6944 149.951 18.778C149.973 19.8977 150.001 21.023 150.023 22.1427C150.034 22.7889 149.868 22.956 149.221 22.9727C148.634 22.9894 148.048 23.0229 147.467 23.0284C146.82 23.034 146.665 22.8836 146.654 22.2485C146.582 19.0342 146.51 15.8144 146.438 12.6001C146.438 12.3828 146.433 12.1656 146.444 11.9483C146.471 11.5862 146.682 11.3522 147.041 11.2965C147.666 11.2018 148.291 11.1016 148.916 11.0347C149.641 10.9567 149.824 11.135 149.829 11.8592C149.835 12.9232 149.846 13.9872 149.857 15.0568C149.857 15.1459 149.873 15.2295 149.884 15.3186C149.912 15.3297 149.945 15.3409 149.973 15.3464L149.962 15.352Z" fill="white"/>
<path d="M96.8682 21.6638C96.7355 21.8254 96.6414 22.0315 96.481 22.1151C95.7232 22.5162 94.9487 22.895 94.1742 23.2626C93.8755 23.4019 93.6266 23.2961 93.4606 22.9841C93.1951 22.4883 92.9351 21.9925 92.6973 21.4856C92.5922 21.2628 92.4539 21.1736 92.2215 21.1736C90.8662 21.1792 89.511 21.1736 88.1557 21.2015C88.0063 21.2015 87.7961 21.3575 87.7187 21.4967C87.4421 21.9814 87.2097 22.4939 86.9608 22.9952C86.7893 23.3462 86.4961 23.4966 86.1421 23.3462C85.4285 23.0342 84.7204 22.7056 84.029 22.349C83.6196 22.1429 83.5753 21.8365 83.7966 21.4354C84.3664 20.3937 84.8919 19.3242 85.5004 18.3047C86.5459 16.5444 87.6301 14.8063 88.7088 13.0683C89.002 12.5892 89.3229 12.1268 89.6492 11.6756C90.0033 11.1854 90.4569 11.0628 90.8386 11.6644C92.0832 13.6086 93.3666 15.5361 94.5891 17.4914C95.264 18.5665 95.8614 19.6918 96.481 20.7948C96.6248 21.0511 96.7244 21.3352 96.8627 21.6583L96.8682 21.6638ZM88.9965 18.4106H91.4415C91.0101 17.7476 90.6228 17.1571 90.1858 16.4942C89.782 17.1293 89.4335 17.6697 89.085 18.2156C89.0518 18.2713 89.0297 18.3326 88.9965 18.4106Z" fill="white"/>
<path d="M131.514 23.0342C131.221 22.9952 131.049 22.8838 130.928 22.6052C130.69 22.076 130.408 21.5579 130.103 21.0622C130.021 20.9229 129.788 20.8003 129.622 20.7948C128.328 20.7836 127.028 20.7948 125.728 20.817C125.435 20.817 125.241 20.9786 125.125 21.285C124.931 21.7863 124.671 22.2599 124.428 22.7389C124.29 23.0119 124.041 23.1066 123.759 23.0175C123.499 22.9395 123.25 22.8169 123.001 22.7055C122.564 22.505 122.138 22.2766 121.695 22.0927C121.208 21.8922 121.048 21.5579 121.297 21.09C121.988 19.7865 122.68 18.4829 123.405 17.2017C124.09 15.9872 124.815 14.7895 125.54 13.603C125.894 13.0292 126.303 12.4888 126.674 11.9318C126.818 11.7145 126.928 11.4694 127.078 11.2577C127.282 10.9625 127.703 10.9123 127.979 11.1519C128.101 11.2577 128.206 11.3803 128.295 11.514C129.307 13.0403 130.341 14.55 131.315 16.0987C132.183 17.4858 132.98 18.9119 133.804 20.3268C133.937 20.5552 134.086 20.7725 134.197 21.012C134.391 21.4298 134.252 21.7752 133.837 21.9757C133.284 22.2487 132.737 22.5384 132.178 22.8058C131.962 22.9061 131.73 22.9618 131.503 23.0342H131.514ZM126.513 17.9704C126.535 18.0038 126.558 18.0428 126.58 18.0763H128.787C128.588 17.3743 128.073 16.873 127.642 16.1766C127.232 16.8284 126.873 17.3966 126.513 17.9704Z" fill="white"/>
<path d="M84.1286 11.9875C84.0788 12.6838 83.946 13.3523 83.8077 14.0041C83.7248 14.4052 83.5422 14.5166 83.1495 14.5389C82.2367 14.5946 81.2687 14.5779 80.3504 14.589C80.0517 14.589 79.9244 14.7116 79.9244 14.9957C79.9244 15.6753 79.9963 15.7477 80.6823 15.7589C81.0031 15.7589 81.3959 15.7366 81.7444 15.7589C82.0929 15.7811 82.3529 15.9483 82.3529 16.3382C82.3529 17.0568 82.3805 17.742 82.3308 18.4774C82.3086 18.7949 82.1095 18.9843 81.7223 19.0122C81.3295 19.04 80.7431 19.0289 80.2951 19.0344C80.0185 19.0344 79.8802 19.118 79.8802 19.4411C79.8802 20.4494 79.8912 21.5468 79.8581 22.5496C79.8359 23.1679 79.6755 23.3573 79.0449 23.3796C78.4143 23.4019 77.6453 23.374 76.9926 23.3852C76.6496 23.3907 76.4505 23.2292 76.4228 22.8949C76.362 22.232 76.3343 21.5691 76.3122 20.9062C76.2181 18.0763 76.0909 15.1795 76.0024 12.3607C75.9803 11.6811 76.102 11.5975 76.7603 11.5753C77.8168 11.5418 78.9896 11.5753 80.0793 11.553C81.2576 11.475 82.6461 11.6087 83.7635 11.7312C84.0235 11.7591 84.1341 11.8594 84.1231 11.9819L84.1286 11.9875Z" fill="white"/>
<path d="M116.147 11.0349C117.419 11.0349 118.697 11.0349 119.969 11.0349C120.163 11.0349 120.362 11.0461 120.55 11.0795C120.865 11.1296 121.037 11.319 121.042 11.6421C121.042 12.2493 121.059 12.8565 121.042 13.4637C121.031 13.9205 120.876 14.0487 120.428 14.0542C119.753 14.0598 119.073 14.0709 118.398 14.0654C118.144 14.0654 118.066 14.1545 118.066 14.4052C118.094 16.7727 118.11 19.1459 118.127 21.5134C118.127 21.6972 118.138 21.8811 118.11 22.0593C118.061 22.3713 117.895 22.5886 117.557 22.6275C116.772 22.7111 115.986 22.8058 115.195 22.8615C114.609 22.9005 114.426 22.7111 114.421 22.1262C114.404 20.6945 114.404 19.2628 114.393 17.8312C114.388 16.7226 114.36 15.6085 114.365 14.4999C114.365 14.2046 114.255 14.1155 113.984 14.1211C113.292 14.1267 112.606 14.1211 111.915 14.1211C111.268 14.1211 111.102 13.954 111.091 13.3078C111.085 12.8732 111.091 12.4387 111.091 12.0042C111.091 11.3413 111.312 11.1073 112.003 11.0906C113.005 11.0683 114 11.0683 115.002 11.0628C115.378 11.0628 115.759 11.0628 116.141 11.0628V11.0461L116.147 11.0349Z" fill="white"/>
<path d="M101.383 26.92C102.919 26.6107 104.114 26.8027 104.967 27.496C105.373 27.8267 105.639 28.3067 105.767 28.936C105.906 29.5653 105.837 30.2693 105.559 31.048C105.442 31.4107 105.239 31.6827 104.951 31.864C104.663 32.0453 104.365 32.152 104.055 32.184C103.757 32.2053 103.485 32.168 103.239 32.072C102.994 31.9653 102.861 31.816 102.839 31.624L102.695 31.304C102.439 30.92 101.997 30.872 101.367 31.16C100.823 31.4053 100.279 31.832 99.7352 32.44C99.1593 33.0907 98.7859 33.6773 98.6153 34.2C98.4233 34.776 98.3273 35.1547 98.3273 35.336C98.3059 35.7413 98.4499 36.104 98.7593 36.424C99.2073 36.712 99.6553 36.8453 100.103 36.824C100.551 36.792 100.951 36.6907 101.303 36.52C101.655 36.3387 101.943 36.136 102.167 35.912C102.391 35.688 102.503 35.528 102.503 35.432C102.535 35.368 102.567 35.304 102.599 35.24C102.631 35.176 102.658 35.112 102.679 35.048C102.637 35.048 102.647 35.048 102.711 35.048C102.775 35.0373 102.791 35.0373 102.759 35.048C102.727 35.048 102.743 35.0533 102.807 35.064L102.903 35.096C102.381 35.5653 101.874 35.6613 101.383 35.384C101.191 35.2667 101.021 35.144 100.871 35.016C100.722 34.8773 100.583 34.8133 100.455 34.824C100.221 34.696 100.167 34.4453 100.295 34.072C100.349 33.9227 100.445 33.784 100.583 33.656C100.733 33.5173 100.919 33.4213 101.143 33.368C102.21 32.9093 103.197 32.8027 104.103 33.048C104.509 33.1547 104.786 33.3733 104.935 33.704C105.095 34.024 105.165 34.3867 105.143 34.792C105.122 35.1973 105.031 35.608 104.871 36.024C104.722 36.44 104.557 36.776 104.375 37.032C104.194 37.2773 103.938 37.5707 103.607 37.912C103.287 38.2533 102.882 38.584 102.391 38.904C101.186 39.6827 99.8953 40.056 98.5193 40.024C96.5246 39.992 95.3459 39.176 94.9832 37.576C94.8659 37.064 94.8126 36.488 94.8232 35.848C94.9299 33.992 95.4846 32.2587 96.4873 30.648C96.9673 29.88 97.6126 29.1227 98.4233 28.376C98.9353 27.9173 99.5113 27.5653 100.151 27.32C100.493 27.1813 100.903 27.048 101.383 26.92ZM110.738 27.416V27.448C110.738 27.4587 110.738 27.464 110.738 27.464C110.749 27.464 110.754 27.4693 110.754 27.48V27.512H110.77L110.866 27.768C110.973 28.0773 110.695 29.0373 110.034 30.648C109.33 32.3653 109.005 33.704 109.058 34.664C109.175 35.3467 109.746 34.7973 110.77 33.016C111.581 31.6293 112.365 30.1093 113.122 28.456C113.218 28.232 113.319 28.0027 113.426 27.768C113.533 27.5227 113.666 27.32 113.826 27.16C114.178 26.776 114.605 26.6747 115.106 26.856C115.277 26.6533 115.474 26.5147 115.698 26.44C115.933 26.3653 116.151 26.3493 116.354 26.392C116.567 26.4347 116.749 26.536 116.898 26.696C117.047 26.8453 117.127 27.048 117.138 27.304C117.17 27.5173 117.058 28.024 116.802 28.824C116.557 29.624 116.327 30.3547 116.114 31.016C115.901 31.6773 115.682 32.3973 115.458 33.176C114.914 35.0213 114.482 36.76 114.162 38.392C114.151 38.7333 114.002 39.016 113.714 39.24C113.437 39.464 113.122 39.608 112.77 39.672C112.429 39.7467 112.103 39.736 111.794 39.64C111.421 39.5333 111.223 39.2667 111.202 38.84C111.202 38.7227 111.197 38.6053 111.186 38.488C111.207 38.8507 110.946 39.16 110.402 39.416C110.253 39.4907 110.114 39.56 109.986 39.624C109.239 39.848 108.455 39.8 107.634 39.48C107.25 39.32 106.903 39.1067 106.594 38.84C106.295 38.5627 106.087 38.2373 105.97 37.864C105.597 36.6693 105.666 35.1013 106.178 33.16C106.391 32.328 106.653 31.5173 106.962 30.728C107.271 29.9387 107.495 29.368 107.634 29.016C107.783 28.664 107.89 28.424 107.954 28.296C108.018 28.1573 108.087 28.024 108.162 27.896C108.343 27.5333 108.498 27.288 108.626 27.16L108.818 26.984C108.839 26.9627 108.861 26.952 108.882 26.952C108.903 26.9413 108.93 26.9253 108.962 26.904C109.047 26.8507 109.138 26.8133 109.234 26.792L109.458 26.744H109.554C109.863 26.7013 110.13 26.7653 110.354 26.936C110.354 26.9467 110.365 26.952 110.386 26.952L110.514 27.064L110.562 27.112L110.61 27.176C110.61 27.1867 110.61 27.192 110.61 27.192C110.621 27.192 110.626 27.1973 110.626 27.208L110.642 27.224V27.256C110.653 27.256 110.658 27.2613 110.658 27.272V27.288C110.669 27.2987 110.679 27.304 110.69 27.304V27.32C110.69 27.3307 110.69 27.336 110.69 27.336C110.701 27.336 110.706 27.3413 110.706 27.352C110.706 27.352 110.711 27.3573 110.722 27.368V27.384C110.722 27.3947 110.727 27.4053 110.738 27.416ZM111.17 38.072V38.024C111.159 38.0347 111.154 38.0773 111.154 38.152C111.154 38.12 111.159 38.0987 111.17 38.088V38.072ZM122.971 28.184C122.598 29.3467 122.251 30.3973 121.931 31.336C121.622 32.2747 121.334 33.1387 121.067 33.928C120.811 34.7173 120.571 35.448 120.347 36.12C120.123 36.7813 119.915 37.416 119.723 38.024C119.616 38.728 119.27 39.224 118.683 39.512C118.342 39.672 117.936 39.752 117.467 39.752C116.998 39.752 116.646 39.6987 116.411 39.592C116.176 39.496 116.027 39.352 115.963 39.16C115.888 38.968 115.888 38.7387 115.963 38.472C116.027 38.1947 116.144 37.8213 116.315 37.352C116.486 36.872 116.699 36.2267 116.955 35.416C117.222 34.6053 117.499 33.784 117.787 32.952C118.502 30.872 119.067 29.432 119.483 28.632C119.643 28.3333 119.803 28.136 119.963 28.04C120.123 27.9333 120.278 27.8587 120.427 27.816C120.576 27.7627 120.715 27.704 120.843 27.64C120.971 27.576 121.083 27.416 121.179 27.16C121.286 26.904 121.472 26.728 121.739 26.632C122.016 26.536 122.272 26.5307 122.507 26.616C122.752 26.6907 122.934 26.8613 123.051 27.128C123.179 27.384 123.152 27.736 122.971 28.184ZM132.03 32.504C131.987 32.9627 131.902 33.432 131.774 33.912C131.657 34.392 131.481 34.8613 131.246 35.32C131.022 35.7787 130.75 36.2213 130.43 36.648C130.121 37.0747 129.774 37.4693 129.39 37.832C129.006 38.1947 128.595 38.4987 128.158 38.744C127.219 39.2987 126.313 39.496 125.438 39.336C125.246 39.752 124.958 40.0133 124.574 40.12C124.201 40.2373 123.827 40.2373 123.454 40.12C123.091 40.0133 122.771 39.8053 122.494 39.496C122.217 39.1867 122.078 38.7653 122.078 38.232C122.078 37.688 122.115 37.1333 122.19 36.568C122.265 36.0027 122.366 35.4587 122.494 34.936C122.697 34.072 122.947 33.2613 123.246 32.504C123.95 30.7867 124.35 29.5813 124.446 28.888C124.585 27.96 124.841 27.384 125.214 27.16C125.833 26.7973 126.419 26.6427 126.974 26.696C127.529 26.7493 128.03 26.8827 128.478 27.096C129.214 27.448 130.009 28.04 130.862 28.872C131.801 29.7787 132.19 30.9893 132.03 32.504ZM125.742 37.304C126.286 37.0267 126.723 36.744 127.054 36.456C127.395 36.1573 127.715 35.8853 128.014 35.64C128.473 35.1813 128.809 34.6373 129.022 34.008C129.491 32.6213 129.193 31.5707 128.126 30.856C127.966 30.7387 127.726 30.5787 127.406 30.376C127.257 30.7173 127.145 31.0747 127.07 31.448C127.006 31.8213 126.915 32.184 126.798 32.536L126.366 33.944L126.014 35.464C125.993 35.6773 125.961 35.8853 125.918 36.088C125.875 36.28 125.838 36.4827 125.806 36.696L125.742 37.304ZM135.194 36.984C135.813 37.048 136.271 37.08 136.57 37.08C136.879 37.08 137.343 37.0373 137.962 36.952C138.154 37.016 138.266 37.096 138.298 37.192C138.33 37.288 138.341 37.3893 138.33 37.496C138.319 37.592 138.325 37.688 138.346 37.784C138.367 37.88 138.469 37.96 138.65 38.024C138.746 38.056 138.773 38.152 138.73 38.312C138.698 38.4613 138.613 38.6267 138.474 38.808C138.122 39.2667 137.706 39.5867 137.226 39.768C136.458 39.96 135.855 40.072 135.418 40.104C134.693 40.1573 133.903 40.1307 133.05 40.024C132.111 39.8533 131.658 39.464 131.69 38.856C131.69 36.616 132.181 34.3653 133.162 32.104C133.482 31.368 133.845 30.5947 134.25 29.784C134.335 29.6133 134.383 29.4213 134.394 29.208C134.415 28.9947 134.431 28.7867 134.442 28.584C134.453 28.3813 134.485 28.2 134.538 28.04C134.591 27.88 134.703 27.768 134.874 27.704C137.093 26.8187 138.847 26.4773 140.138 26.68C140.586 26.6907 140.879 26.8453 141.018 27.144C141.167 27.432 141.183 27.7573 141.066 28.12C140.959 28.4827 140.741 28.824 140.41 29.144C140.09 29.464 139.685 29.6613 139.194 29.736C138.565 29.9173 138.181 30.04 138.042 30.104C137.775 30.232 137.583 30.4027 137.466 30.616C137.317 30.8507 137.178 31.0747 137.05 31.288C136.922 31.5013 136.831 31.7307 136.778 31.976L136.714 32.328C136.917 32.424 137.162 32.456 137.45 32.424C137.749 32.3813 138.021 32.344 138.266 32.312C138.522 32.2693 138.725 32.264 138.874 32.296C139.034 32.328 139.066 32.488 138.97 32.776C138.885 33.0533 138.719 33.368 138.474 33.72C138.239 34.072 137.903 34.328 137.466 34.488C137.189 34.5413 136.997 34.584 136.89 34.616C136.794 34.6373 136.719 34.6533 136.666 34.664C136.591 34.6747 136.378 34.6907 136.026 34.712C135.525 35.5653 135.221 36.2267 135.114 36.696C135.071 36.888 135.098 36.984 135.194 36.984Z" fill="white"/>
</svg>
