<svg width="130" height="50" viewBox="0 0 130 50" fill="none" xmlns="http://www.w3.org/2000/svg">
<path d="M87.3387 29.945L91.5007 25.07L95.7279 29.945H87.3387Z" fill="#312782"/>
<path d="M94.2972 8.82001L94.8824 12.395L67.1786 39.565H63.2116L94.2972 8.82001Z" fill="#312782"/>
<path d="M63.2116 39.565L94.3622 8.755C85.973 11.225 76.3482 15.905 72.1211 20.585C66.5933 26.63 63.927 31.375 63.2116 39.565Z" fill="#0080C8"/>
<path d="M37.4587 28.905L45.3277 25.785L45.3927 34.235L37.4587 28.905Z" fill="#312782"/>
<path d="M27.5088 17.01L35.6378 13.24L36.2881 21.885L27.5088 17.01Z" fill="#312782"/>
<path d="M14.047 20.78L17.2987 12.72L24.3872 17.92L14.047 20.78Z" fill="#312782"/>
<path d="M53.1316 39.565L50.075 31.96C44.092 33.78 39.8649 31.18 38.5643 26.305C36.093 17.27 27.8339 15.255 21.3957 17.92C18.4692 19.09 13.7869 21.69 8.71436 15.775C5.85293 12.46 5.13757 9.99 4.16208 6.87L0 12.07C0.585293 13.695 1.36568 15.32 2.27614 16.815C9.75488 28.775 16.3232 26.11 22.6313 23.25C26.5983 21.43 31.6708 22.6 34.012 29.815C35.963 36.055 41.2306 41.515 48.1891 40.605C49.8149 40.41 51.5058 40.085 53.1316 39.565Z" fill="#0080C8"/>
<path d="M46.4982 36.835C39.6698 37.355 36.4832 33.13 34.5973 27.865C32.8414 23.12 27.899 18.765 21.1356 22.015C13.982 25.46 8.97449 24.615 3.12156 15.06C2.34117 13.63 1.62581 12.135 1.10555 10.64L0 12.005C0.585293 13.63 1.36568 15.255 2.27614 16.75C9.75488 28.775 16.3232 26.11 22.6313 23.25C26.5983 21.43 31.6708 22.6 34.012 29.815C35.963 36.055 41.2306 41.515 48.1891 40.605C49.8799 40.41 51.5058 40.085 53.1316 39.5L52.8064 38.655L51.1806 35.665C49.6848 36.38 48.1241 36.705 46.4982 36.835Z" fill="#312782"/>
<path d="M50.9855 36.055C50.1401 33.975 49.6848 32.09 50.075 31.96C50.4652 31.83 51.4407 33.455 52.2861 35.535C53.1316 37.615 53.5218 39.435 53.1316 39.565C52.7414 39.63 51.8309 38.135 50.9855 36.055Z" fill="#312782"/>
<path d="M9.03953 0.695007L8.12908 8.10501L2.14609 3.62001L9.03953 0.695007Z" fill="#312782"/>
<path d="M49.4897 10.9L51.3107 22.21L61.0655 11.745L49.4897 10.9Z" fill="#312782"/>
<path d="M69.3897 1.08502L61.0656 11.68H77.8439L69.3897 1.08502Z" fill="#312782"/>
<path d="M89.5498 29.88C89.4848 40.995 80.3802 49.9 69.3247 49.835C58.2691 49.77 49.2947 40.67 49.3597 29.555C49.4247 18.44 58.4642 9.53499 69.5848 9.59999C80.7054 9.72999 89.6148 18.765 89.5498 29.88Z" fill="#0080C8"/>
<path d="M69.5198 45.025C60.2851 45.025 52.4162 39.76 49.5548 32.415C50.9855 43.4 61.1306 51.135 72.1211 49.64C80.9005 48.47 87.924 41.645 89.2897 32.935C86.2331 40.02 78.5593 45.025 69.5198 45.025Z" fill="#312782"/>
<path d="M130 29.23H112.051L104.312 38.525H124.992L126.423 40.085L130 29.23Z" fill="#312782"/>
<path d="M95.7279 29.75L99.955 24.875L102.296 26.955L98.5893 14.15L122.911 29.75H95.7279Z" fill="#312782"/>
<path d="M87.2086 29.685H110.295V35.795H87.2086C86.6884 35.795 86.2982 34.43 86.2982 32.74C86.2982 31.05 86.6884 29.685 87.2086 29.685Z" fill="#0080C8"/>
<path d="M124.017 29.62H106.068L100.995 35.73L119.27 35.08L120.96 37.81L124.017 29.62Z" fill="#312782"/>
<path d="M126.228 29.23H108.279L100.54 38.525H121.221L122.716 40.085L126.228 29.23Z" fill="#0080C8"/>
<path d="M115.108 31.18C115.043 30.855 115.173 30.53 115.498 30.465C115.823 30.4 116.148 30.53 116.213 30.855C116.278 31.18 116.148 31.505 115.823 31.57C115.563 31.7 115.173 31.505 115.108 31.18Z" fill="#312782"/>
<path d="M92.1511 1.47501L92.6713 5.05001L65.0325 32.22H61.0005L92.1511 1.47501Z" fill="#312782"/>
<path d="M61.0005 32.22L92.1511 1.41C83.7619 3.88 74.1371 8.56 69.9099 13.24C64.4472 19.285 61.7809 23.965 61.0005 32.22Z" fill="#0080C8"/>
<path d="M80.1851 20.845C82.1361 19.935 84.1521 19.22 86.2331 18.7C84.9975 16.75 83.3717 14.995 81.5508 13.565L65.6178 31.44C70.5603 26.435 74.5273 23.445 80.1851 20.845Z" fill="#312782"/>
</svg>
