<svg width="25" height="25" viewBox="0 0 25 25" fill="none" xmlns="http://www.w3.org/2000/svg">
<path d="M21.1133 5.26105C20.6156 4.76316 20.0248 4.36819 19.3744 4.09872C18.7241 3.82925 18.027 3.69055 17.323 3.69055C16.6191 3.69055 15.922 3.82925 15.2717 4.09872C14.6213 4.36819 14.0304 4.76316 13.5328 5.26105L12.5 6.29387L11.4671 5.26105C10.4619 4.25581 9.0985 3.69107 7.67688 3.69107C6.25526 3.69107 4.89186 4.25581 3.88663 5.26105C2.88139 6.26629 2.31665 7.62968 2.31665 9.0513C2.31665 10.4729 2.88139 11.8363 3.88663 12.8416L4.91945 13.8744L12.5 21.4549L20.0805 13.8744L21.1133 12.8416C21.6112 12.3439 22.0061 11.753 22.2756 11.1027C22.5451 10.4523 22.6838 9.75527 22.6838 9.0513C22.6838 8.34734 22.5451 7.65028 22.2756 6.99993C22.0061 6.34959 21.6112 5.75871 21.1133 5.26105Z" stroke="black" stroke-width="2" stroke-linecap="round" stroke-linejoin="round"/>
</svg>
