<svg width="21" height="23" viewBox="0 0 21 23" fill="none" xmlns="http://www.w3.org/2000/svg">
<path d="M7.25781 20.125C7.74106 20.125 8.13281 19.7154 8.13281 19.2102C8.13281 18.705 7.74106 18.2954 7.25781 18.2954C6.77456 18.2954 6.38281 18.705 6.38281 19.2102C6.38281 19.7154 6.77456 20.125 7.25781 20.125Z" fill="white" stroke="white" stroke-width="1.8" stroke-linecap="round" stroke-linejoin="round"/>
<path d="M16.8818 20.125C17.3651 20.125 17.7568 19.7154 17.7568 19.2102C17.7568 18.705 17.3651 18.2954 16.8818 18.2954C16.3986 18.2954 16.0068 18.705 16.0068 19.2102C16.0068 19.7154 16.3986 20.125 16.8818 20.125Z" fill="white" stroke="white" stroke-width="1.8" stroke-linecap="round" stroke-linejoin="round"/>
<path d="M1.13281 1.82959H4.31463L6.44645 13.2615C6.51919 13.6546 6.71842 14.0077 7.00927 14.259C7.30012 14.5103 7.66405 14.6438 8.03736 14.6361H15.7692C16.1425 14.6438 16.5064 14.5103 16.7973 14.259C17.0881 14.0077 17.2873 13.6546 17.3601 13.2615L18.6328 6.09842H5.11009" stroke="white" stroke-width="1.7" stroke-linecap="round" stroke-linejoin="round"/>
</svg>
