<svg width="42" height="46" viewBox="0 0 42 46" fill="none" xmlns="http://www.w3.org/2000/svg">
<rect x="18.5" y="21" width="4" height="4" rx="2" fill="white"/>
<path d="M21.9639 15.1618C21.0803 11.864 22.9885 8.48734 26.2261 7.61983C29.4637 6.75232 32.8046 8.72245 33.6882 12.0202C34.5719 15.318 32.6636 18.6947 29.426 19.5622C26.1885 20.4297 22.8475 18.4596 21.9639 15.1618Z" fill="white"/>
<path d="M17.3001 12.4115C16.4164 9.11372 18.3247 5.73708 21.5623 4.86957C24.7999 4.00206 28.1408 5.97219 29.0244 9.26998C29.908 12.5678 27.9998 15.9444 24.7622 16.8119C21.5246 17.6794 18.1837 15.7093 17.3001 12.4115Z" fill="white"/>
<path d="M23.695 9.898C22.8114 6.60021 24.7196 3.22357 27.9572 2.35606C31.1948 1.48855 34.5357 3.45868 35.4194 6.75648C36.303 10.0543 34.3947 13.4309 31.1572 14.2984C27.9196 15.1659 24.5787 13.1958 23.695 9.898Z" fill="white"/>
<path d="M27.8261 13.591C26.9424 10.2932 28.8507 6.91657 32.0883 6.04906C35.3259 5.18155 38.6668 7.15169 39.5504 10.4495C40.4341 13.7473 38.5258 17.1239 35.2882 17.9914C32.0506 18.8589 28.7097 16.8888 27.8261 13.591Z" fill="white"/>
<path d="M26.2695 15V14.125L28.9766 11.3203C29.2656 11.0156 29.5039 10.7487 29.6914 10.5195C29.8815 10.2878 30.0234 10.0677 30.1172 9.85937C30.2109 9.65104 30.2578 9.42969 30.2578 9.19531C30.2578 8.92969 30.1953 8.70052 30.0703 8.50781C29.9453 8.3125 29.7747 8.16276 29.5586 8.05859C29.3424 7.95182 29.099 7.89844 28.8281 7.89844C28.5417 7.89844 28.2917 7.95703 28.0781 8.07422C27.8646 8.19141 27.7005 8.35677 27.5859 8.57031C27.4714 8.78385 27.4141 9.03385 27.4141 9.32031H26.2617C26.2617 8.83333 26.3737 8.40755 26.5977 8.04297C26.8216 7.67839 27.1289 7.39583 27.5195 7.19531C27.9102 6.99219 28.3542 6.89062 28.8516 6.89062C29.3542 6.89062 29.7969 6.99089 30.1797 7.19141C30.5651 7.38932 30.8659 7.66016 31.082 8.00391C31.2982 8.34505 31.4062 8.73047 31.4062 9.16016C31.4062 9.45703 31.3503 9.7474 31.2383 10.0312C31.1289 10.3151 30.9375 10.6315 30.6641 10.9805C30.3906 11.3268 30.0104 11.7474 29.5234 12.2422L27.9336 13.9062V13.9648H31.5352V15H26.2695Z" fill="black"/>
<path d="M7.25781 43.125C7.74106 43.125 8.13281 42.7154 8.13281 42.2102C8.13281 41.705 7.74106 41.2954 7.25781 41.2954C6.77456 41.2954 6.38281 41.705 6.38281 42.2102C6.38281 42.7154 6.77456 43.125 7.25781 43.125Z" fill="white" stroke="white" stroke-width="1.8" stroke-linecap="round" stroke-linejoin="round"/>
<path d="M16.8818 43.125C17.3651 43.125 17.7568 42.7154 17.7568 42.2102C17.7568 41.705 17.3651 41.2954 16.8818 41.2954C16.3986 41.2954 16.0068 41.705 16.0068 42.2102C16.0068 42.7154 16.3986 43.125 16.8818 43.125Z" fill="white" stroke="white" stroke-width="1.8" stroke-linecap="round" stroke-linejoin="round"/>
<path d="M1.13281 24.8296H4.31463L6.44645 36.2615C6.51919 36.6546 6.71842 37.0077 7.00927 37.259C7.30012 37.5103 7.66405 37.6438 8.03736 37.6361H15.7692C16.1425 37.6438 16.5064 37.5103 16.7973 37.259C17.0881 37.0077 17.2873 36.6546 17.3601 36.2615L18.6328 29.0984H5.11009" stroke="white" stroke-width="1.7" stroke-linecap="round" stroke-linejoin="round"/>
</svg>
