<svg width="31" height="31" viewBox="0 0 31 31" fill="none" xmlns="http://www.w3.org/2000/svg">
<path d="M21.5992 2.57837H8.89383C5.38533 2.57837 2.54114 5.39412 2.54114 8.86753V21.4459C2.54114 24.9193 5.38533 27.735 8.89383 27.735H21.5992C25.1077 27.735 27.9519 24.9193 27.9519 21.4459V8.86753C27.9519 5.39412 25.1077 2.57837 21.5992 2.57837Z" stroke="white" stroke-width="1.517" stroke-linecap="round" stroke-linejoin="round"/>
<path d="M20.3286 14.3644C20.4854 15.4112 20.3048 16.4803 19.8124 17.4197C19.3201 18.359 18.5411 19.1207 17.5863 19.5965C16.6314 20.0723 15.5494 20.2379 14.494 20.0698C13.4386 19.9017 12.4636 19.4084 11.7078 18.6601C10.9519 17.9118 10.4536 16.9465 10.2838 15.9017C10.114 14.8569 10.2812 13.7856 10.7618 12.8403C11.2424 11.8951 12.0119 11.1239 12.9607 10.6365C13.9095 10.149 14.9895 9.97024 16.0469 10.1255C17.1255 10.2838 18.124 10.7814 18.895 11.5447C19.666 12.308 20.1686 13.2966 20.3286 14.3644Z" stroke="white" stroke-width="1.517" stroke-linecap="round" stroke-linejoin="round"/>
<path d="M22.2345 8.23877H22.2483" stroke="white" stroke-width="2.52834" stroke-linecap="round" stroke-linejoin="round"/>
</svg>
