<svg width="294" height="46" viewBox="0 0 294 46" fill="none" xmlns="http://www.w3.org/2000/svg">
<path d="M109.922 18.2853C109.922 13.3732 109.922 8.68627 109.922 3.97883C109.922 3.38528 109.922 2.79174 110.003 2.21866C110.186 1.09297 110.796 0.335683 111.995 0.315216C114.779 0.274281 117.564 0.21288 120.348 0.294749C121.71 0.335683 122.401 1.33857 122.421 2.95547C122.462 11.3675 122.482 19.7794 122.523 28.2119C122.543 33.1445 122.625 38.0566 122.625 42.9892C122.625 43.6032 122.36 44.7493 122.157 44.7698C121.385 44.8312 120.43 44.7289 119.82 44.3195C117.279 42.5798 114.861 40.6764 112.361 38.8957C108.581 36.2145 104.76 33.5947 100.939 30.975C99.0486 29.6651 97.1178 28.3756 94.9635 26.8815C94.9228 27.5979 94.8618 28.0072 94.8618 28.437C94.8822 32.4281 94.9431 36.4397 94.9431 40.4308C94.9431 42.4979 93.9269 43.5213 91.8335 43.5827C89.5572 43.6441 87.2809 43.6646 85.0046 43.6441C83.3584 43.6441 82.4235 42.7026 82.4235 41.0243C82.4031 28.1096 82.3828 15.1948 82.3828 2.25959C82.3828 0.724558 82.9722 0.335683 84.3543 1.03156C85.2079 1.46137 86.0208 2.03445 86.8135 2.58707C94.2115 7.66291 101.609 12.7388 109.007 17.8146C109.231 17.9783 109.516 18.0807 109.922 18.3058V18.2853Z" fill="#030D32"/>
<path d="M242.081 12.8843C241.472 12.3502 241.005 11.8572 240.477 11.4668C238.122 9.74119 235.604 8.81674 232.701 10.0699C231.788 10.4602 230.935 11.0765 231.057 12.0831C231.158 12.8638 231.686 13.891 232.315 14.2197C234.346 15.2263 236.457 16.048 238.609 16.7465C241.776 17.7737 244.882 18.9652 247.176 21.3893C252.861 27.388 252.414 37.4748 244.557 41.5835C237.594 45.2402 230.549 44.9115 223.423 42.2409C221.231 41.4191 218.977 40.618 217.272 38.8512C216.703 38.276 216.602 38.05 217.292 37.4132C219.038 35.8313 220.622 34.0646 222.286 32.4006C222.753 31.9281 223.281 31.4967 223.789 31.0653C224.418 30.5517 224.987 30.6133 225.758 30.9625C227.707 31.8459 229.697 32.6882 231.727 33.3456C233.513 33.9208 235.239 33.4072 236.822 32.4622C238.426 31.4967 238.67 29.545 237.046 28.6617C234.772 27.4291 232.315 26.5046 229.879 25.6418C227.199 24.6763 224.56 23.5464 222.55 21.5331C218.977 17.9791 218.47 12.5556 220.825 7.81011C223.099 3.1673 227.037 1.17459 231.828 0.311764C235.746 -0.407256 239.238 0.928066 242.71 2.34556C243.725 2.75643 244.679 3.3111 245.654 3.80414C247.055 4.54371 247.339 5.30381 246.506 6.68022C245.776 7.87174 244.903 8.96054 244.09 10.0904C243.461 10.9738 242.832 11.8777 242.101 12.9254L242.081 12.8843Z" fill="#030D32"/>
<path d="M269.283 16.0955C269.933 15.3587 270.665 14.6628 271.255 13.8441C273.978 10.0986 276.62 6.33266 279.344 2.58717C281.051 0.253924 282.108 -0.0326161 284.364 0.745134C286.355 1.44102 288.428 1.82989 290.441 2.48484C292.9 3.28306 293.205 4.42922 291.64 6.49639C288.266 10.9582 284.872 15.4201 281.518 19.8819C280.238 21.5807 280.197 21.6216 281.498 23.3613C285.359 28.5599 289.262 33.7586 293.144 38.9368C294.566 40.8197 294.241 42.1092 291.985 42.7846C289.302 43.6033 286.559 44.2378 283.815 44.8927C282.433 45.2202 281.478 44.5448 280.726 43.4395C277.535 38.7526 274.323 34.0656 271.112 29.3786C270.685 28.7442 270.137 28.212 269.385 27.3319C269.303 28.0687 269.222 28.3757 269.242 28.6827C269.324 32.7966 269.425 36.931 269.507 41.0449C269.547 43.4191 268.938 44.0331 266.56 44.0945C264.405 44.1559 262.251 44.2787 260.117 44.2992C257.739 44.3196 257.17 43.767 257.129 41.4338C256.865 29.6242 256.601 17.7942 256.337 5.98472C256.337 5.1865 256.316 4.38828 256.357 3.59006C256.459 2.2597 257.231 1.40008 258.552 1.19541C260.849 0.84747 263.145 0.479062 265.442 0.233456C268.104 -0.0530832 268.775 0.601865 268.795 3.26259C268.816 7.17181 268.856 11.081 268.897 15.0107C268.897 15.3382 268.958 15.6452 268.999 15.9727C269.1 16.0136 269.222 16.0545 269.324 16.075L269.283 16.0955Z" fill="#030D32"/>
<path d="M76.6719 39.2851C76.1841 39.8786 75.8386 40.6359 75.2492 40.9429C72.4648 42.4165 69.6194 43.8083 66.774 45.1591C65.6765 45.6708 64.7619 45.2819 64.1522 44.1358C63.1767 42.3142 62.2214 40.4926 61.3475 38.6301C60.9613 37.8114 60.4532 37.484 59.5996 37.484C54.6202 37.5044 49.6408 37.484 44.6614 37.5863C44.1126 37.5863 43.3403 38.1594 43.0558 38.6711C42.0396 40.4517 41.1859 42.3347 40.2714 44.1767C39.6413 45.4661 38.5641 46.0188 37.2634 45.4661C34.6416 44.32 32.0401 43.1124 29.4996 41.8025C27.9956 41.0452 27.833 39.9196 28.646 38.4459C30.7393 34.6186 32.6701 30.6889 34.9058 26.9434C38.747 20.4758 42.7306 14.0901 46.6938 7.70431C47.771 5.94414 48.9498 4.24537 50.1489 2.58753C51.4496 0.786425 53.1162 0.336148 54.5186 2.5466C59.0915 9.68962 63.8067 16.7712 68.2983 23.9552C70.7779 27.9054 72.9729 32.0397 75.2492 36.0922C75.7776 37.0337 76.1434 38.0775 76.6515 39.2646L76.6719 39.2851ZM47.7506 27.3323H56.7339C55.1486 24.8967 53.7259 22.7272 52.1203 20.2916C50.6367 22.6248 49.3562 24.6101 48.0758 26.6159C47.9539 26.8206 47.8726 27.0457 47.7506 27.3323Z" fill="#030D32"/>
<path d="M203.348 44.3198C202.27 44.1765 201.64 43.7672 201.193 42.7438C200.319 40.7995 199.283 38.896 198.165 37.0745C197.86 36.5628 197.006 36.1125 196.397 36.092C191.641 36.0511 186.865 36.092 182.089 36.1739C181.011 36.1739 180.3 36.7674 179.873 37.8931C179.162 39.7352 178.207 41.4749 177.312 43.2351C176.804 44.2379 175.89 44.5859 174.853 44.2584C173.898 43.9719 172.983 43.5216 172.069 43.1123C170.463 42.3754 168.898 41.5363 167.272 40.8609C165.484 40.1241 164.894 38.896 165.809 37.1768C168.349 32.3875 170.89 27.5982 173.552 22.8907C176.073 18.4289 178.735 14.0285 181.398 9.66899C182.698 7.56087 184.202 5.57556 185.564 3.52885C186.092 2.73063 186.499 1.83008 187.048 1.05233C187.8 -0.0324274 189.344 -0.216631 190.36 0.663455C190.808 1.05233 191.194 1.50261 191.519 1.99382C195.238 7.60181 199.039 13.1484 202.616 18.8383C205.807 23.9346 208.734 29.1742 211.762 34.3728C212.25 35.2119 212.798 36.0102 213.205 36.8903C213.916 38.4253 213.408 39.6942 211.884 40.4311C209.851 41.434 207.839 42.4982 205.787 43.4807C204.994 43.8491 204.14 44.0537 203.307 44.3198H203.348ZM184.975 25.7152C185.056 25.838 185.137 25.9813 185.218 26.1041H193.328C192.596 23.5252 190.706 21.6832 189.121 19.1248C187.617 21.5194 186.296 23.6071 184.975 25.7152Z" fill="#030D32"/>
<path d="M29.865 3.73342C29.682 6.29181 29.1943 8.74786 28.6862 11.1425C28.3813 12.6161 27.7106 13.0255 26.2676 13.1074C22.9141 13.312 19.3574 13.2506 15.9836 13.2916C14.8861 13.2916 14.4186 13.7418 14.4186 14.7857C14.4186 17.2826 14.6828 17.5487 17.203 17.5897C18.3818 17.5897 19.8248 17.5078 21.1053 17.5897C22.3857 17.6715 23.3409 18.2855 23.3409 19.7182C23.3409 22.3585 23.4425 24.8759 23.2596 27.5776C23.1783 28.7442 22.4467 29.4401 21.024 29.5424C19.5809 29.6448 17.4266 29.6039 15.7803 29.6243C14.7641 29.6243 14.256 29.9313 14.256 31.1184C14.256 34.823 14.2967 38.855 14.1747 42.5391C14.0934 44.8109 13.504 45.5068 11.1871 45.5887C8.87013 45.6705 6.04508 45.5682 3.64683 45.6091C2.38673 45.6296 1.65506 45.0361 1.55344 43.808C1.32988 41.3724 1.22826 38.9369 1.14696 36.5013C0.801451 26.104 0.333996 15.4611 0.00880951 5.10471C-0.072487 2.60773 0.374644 2.30072 2.79322 2.21885C6.67512 2.09605 10.9838 2.21885 14.9877 2.13698C19.3167 1.85044 24.4181 2.34165 28.5236 2.79193C29.4788 2.89427 29.8853 3.26267 29.8446 3.71295L29.865 3.73342Z" fill="#030D32"/>
<path d="M147.501 0.233398C152.176 0.233398 156.871 0.233398 161.545 0.233398C162.257 0.233398 162.988 0.274333 163.679 0.397135C164.838 0.581339 165.468 1.27722 165.488 2.46431C165.488 4.69523 165.549 6.92615 165.488 9.15706C165.448 10.8354 164.878 11.3061 163.232 11.3266C160.753 11.347 158.253 11.388 155.773 11.3675C154.838 11.3675 154.554 11.695 154.554 12.616C154.655 21.3145 154.716 30.0335 154.777 38.7321C154.777 39.4075 154.818 40.0829 154.716 40.7378C154.533 41.884 153.924 42.6822 152.684 42.8255C149.798 43.1325 146.912 43.4804 144.006 43.6851C141.851 43.8284 141.18 43.1325 141.16 40.9834C141.099 35.7234 141.099 30.4633 141.059 25.2033C141.038 21.1303 140.937 17.0369 140.957 12.9639C140.957 11.8792 140.55 11.5517 139.555 11.5722C137.014 11.5926 134.494 11.5722 131.953 11.5722C129.575 11.5722 128.966 10.9582 128.925 8.58398C128.905 6.98755 128.925 5.39111 128.925 3.79468C128.925 1.35909 129.738 0.499471 132.279 0.43807C135.957 0.356201 139.616 0.356201 143.294 0.335734C144.676 0.335734 146.079 0.335734 147.481 0.335734V0.274333L147.501 0.233398Z" fill="#030D32"/>
</svg>
