<svg width="482" height="244" viewBox="0 0 482 244" fill="none" xmlns="http://www.w3.org/2000/svg">
<rect x="72.4932" y="115.113" width="203.231" height="104.552" transform="rotate(-17.9244 72.4932 115.113)" fill="url(#paint0_diamond_255_4967)"/>
<path d="M150.272 120.821L109.838 114.145L86.0357 137.895L111.741 171.559L146.916 163.885L180.397 179.601L215.572 171.927L229.315 151.431L274.024 136.97L272.103 102.403L240.889 103.239L213.556 85.5351L171.707 91.6635L150.272 120.821Z" fill="url(#paint1_diamond_255_4967)" stroke="white" stroke-width="2"/>
<g clip-path="url(#clip0_255_4967)">
<path d="M213.012 105.604L214.927 109.415L193.838 149.799L189.361 151.247L213.012 105.604Z" fill="#312782"/>
<path d="M189.361 151.247L213.063 105.54C204.559 111.34 195.546 120.034 192.46 126.85C188.514 135.55 187.212 141.774 189.361 151.247Z" fill="#0080C8"/>
<path d="M156.765 148.612L164.397 142.275L167.511 151.701L156.765 148.612Z" fill="#312782"/>
<path d="M141.311 138.909L149.014 131.771L152.903 141.138L141.311 138.909Z" fill="#312782"/>
<path d="M127.654 147.965L128.314 137.792L138.118 141.073L127.654 147.965Z" fill="#312782"/>
<path d="M178.062 154.837L171.858 147.422C165.791 151.623 160.178 150.205 156.96 145.267C150.922 136.033 140.987 136.79 134.763 142.07C131.952 144.448 127.659 149.047 119.803 144.269C115.395 141.61 113.755 139.122 111.518 135.978L108.766 143.28C110.051 144.903 111.467 146.418 113.001 147.809C125.712 158.44 132.122 153.116 138.08 147.634C141.865 144.171 147.977 143.63 153.175 150.889C157.618 157.181 165.457 161.362 172.919 157.825C174.734 157.013 176.458 156.011 178.062 154.837Z" fill="#0080C8"/>
<path d="M113.178 145.802C123.167 154.344 129.039 153.488 135.81 147.044C142.186 140.969 149.331 143.995 152.999 148.707C157.019 153.915 162.081 157.527 169.544 154.438C171.296 153.742 172.925 152.768 174.367 151.554L177.229 154.296L171.687 147.686C165.62 151.888 160.01 150.452 156.788 145.531C150.75 136.297 140.816 137.055 134.592 142.334C131.773 144.714 127.488 149.311 119.61 144.54C115.197 141.842 113.565 139.377 111.306 136.239L109.33 141.573C110.477 143.1 111.766 144.516 113.178 145.802Z" fill="#0080C8"/>
<path d="M169.703 154.186C162.233 157.277 157.176 153.656 153.155 148.448C149.495 143.733 142.351 140.707 135.967 146.785C129.223 153.236 123.331 154.082 113.347 145.554C111.935 144.268 110.647 142.852 109.499 141.326L108.766 143.28C110.051 144.904 111.467 146.418 113.001 147.809C125.714 158.447 132.115 153.119 138.073 147.636C141.858 144.173 147.969 143.633 153.167 150.892C157.611 157.183 165.45 161.364 172.912 157.827C174.724 157.015 176.445 156.014 178.048 154.842L177.381 154.046L174.519 151.304C173.078 152.516 171.452 153.489 169.703 154.186Z" fill="#312782"/>
<path d="M174.4 151.704C172.713 149.69 171.513 147.743 171.866 147.444C172.219 147.145 173.961 148.636 175.648 150.65C177.336 152.665 178.425 154.567 178.077 154.832C177.729 155.097 176.082 153.704 174.4 151.704Z" fill="#312782"/>
<path d="M113.492 141.335C115.938 144.028 118.98 146.114 122.374 147.426C122.426 147.444 122.48 147.453 122.535 147.45C122.589 147.448 122.643 147.435 122.693 147.412C122.742 147.389 122.787 147.356 122.824 147.316C122.861 147.275 122.889 147.228 122.908 147.177C122.927 147.125 122.935 147.071 122.933 147.016C122.93 146.962 122.917 146.908 122.894 146.859C122.871 146.809 122.838 146.765 122.798 146.728C122.758 146.691 122.71 146.662 122.659 146.643C119.388 145.374 116.457 143.36 114.101 140.76C114.024 140.679 113.918 140.631 113.807 140.627C113.695 140.623 113.586 140.664 113.504 140.741C113.423 140.817 113.375 140.923 113.371 141.035C113.367 141.146 113.408 141.255 113.484 141.337" fill="white"/>
<path d="M114.762 127.369L116.4 135.956L108.124 133.079L114.762 127.369Z" fill="#312782"/>
<path d="M140.652 140.543L141.146 140.383C143.129 139.731 145.252 139.633 147.286 140.1C149.32 140.566 151.188 141.579 152.688 143.03C152.77 143.109 152.88 143.153 152.995 143.152C153.11 143.15 153.219 143.103 153.299 143.02C153.379 142.938 153.423 142.828 153.421 142.713C153.419 142.599 153.372 142.489 153.29 142.409C151.682 140.857 149.681 139.773 147.502 139.274C145.323 138.775 143.05 138.881 140.926 139.579L140.396 139.751C140.304 139.795 140.231 139.87 140.191 139.964C140.151 140.057 140.146 140.162 140.178 140.259C140.209 140.355 140.274 140.437 140.361 140.489C140.449 140.542 140.552 140.561 140.652 140.543Z" fill="white"/>
<path d="M163.672 124.1L169.818 136.124L176.909 120.918L163.672 124.1Z" fill="#312782"/>
<path d="M182.354 105.931L176.886 120.845L195.673 114.768L182.354 105.931Z" fill="#312782"/>
<path d="M215.299 130.843C216.703 135.292 216.756 140.058 215.451 144.538C214.147 149.018 211.543 153.011 207.969 156.012C204.395 159.013 200.012 160.888 195.373 161.4C190.734 161.911 186.047 161.036 181.906 158.885C177.765 156.735 174.355 153.405 172.107 149.316C169.859 145.228 168.873 140.565 169.276 135.916C169.678 131.268 171.45 126.843 174.368 123.201C177.285 119.558 181.217 116.862 185.666 115.453C191.638 113.57 198.113 114.133 203.669 117.019C209.224 119.904 213.407 124.876 215.299 130.843Z" fill="#0080C8"/>
<path d="M198.383 155.014C188.077 158.347 177.394 155.302 171.499 148.148C173.94 153.257 178.138 157.318 183.327 159.588C188.515 161.858 194.348 162.186 199.759 160.513C205.17 158.839 209.799 155.276 212.8 150.473C215.802 145.67 216.975 139.949 216.105 134.354C215.232 143.368 208.448 151.758 198.383 155.014Z" fill="#312782"/>
<path d="M178.501 123.083C174.886 126.555 172.684 131.241 172.319 136.238C172.298 136.422 172.314 136.608 172.366 136.786C172.419 136.964 172.507 137.129 172.625 137.272C172.743 137.415 172.888 137.532 173.053 137.617C173.217 137.702 173.397 137.753 173.582 137.767C173.767 137.781 173.952 137.757 174.128 137.698C174.303 137.638 174.465 137.544 174.603 137.42C174.741 137.296 174.852 137.146 174.931 136.978C175.009 136.81 175.053 136.628 175.059 136.443C175.384 132.124 177.294 128.076 180.423 125.078C180.687 124.823 180.84 124.474 180.847 124.107C180.854 123.739 180.714 123.384 180.46 123.12C180.205 122.855 179.855 122.703 179.488 122.696C179.121 122.689 178.765 122.829 178.501 123.083Z" fill="white"/>
<path d="M260.289 115.504L240.222 121.994L234.91 135.205L258.029 127.727L260.238 128.947L260.289 115.504Z" fill="#312782"/>
<path d="M222.164 128.462L225.108 121.506L228.518 122.988L219.719 110.008L252.543 118.635L222.164 128.462Z" fill="#312782"/>
<path d="M212.813 131.719L215.75 124.766L222.21 128.679L212.813 131.719Z" fill="#312782"/>
<path d="M212.609 131.512L238.439 123.157L240.648 129.986L214.84 138.334C214.288 138.513 213.286 137.128 212.684 135.268C212.083 133.408 212.05 131.693 212.609 131.512Z" fill="#0080C8"/>
<path d="M253.748 118.141L233.682 124.632L230.2 133.302L250.421 125.95L253.279 128.381L253.748 118.141Z" fill="#312782"/>
<path d="M230.581 128.821L213.073 134.484C213.001 134.532 212.947 134.602 212.919 134.684C212.891 134.765 212.89 134.854 212.916 134.936C212.943 135.018 212.995 135.089 213.066 135.139C213.137 135.188 213.221 135.214 213.308 135.211L230.823 129.545C230.885 129.543 230.945 129.527 230.999 129.497C231.053 129.468 231.099 129.427 231.135 129.376C231.17 129.326 231.193 129.268 231.202 129.207C231.211 129.146 231.206 129.084 231.187 129.026C231.168 128.967 231.136 128.914 231.093 128.87C231.05 128.826 230.997 128.793 230.939 128.773C230.881 128.753 230.819 128.747 230.758 128.754C230.697 128.762 230.639 128.784 230.588 128.819" fill="white"/>
<path d="M256.081 116.865L236.014 123.356L230.702 136.566L253.828 129.086L256.03 130.308L256.081 116.865Z" fill="#0080C8"/>
<path d="M244.331 123.081C244.253 122.964 244.211 122.827 244.211 122.687C244.211 122.546 244.253 122.409 244.331 122.292C244.408 122.175 244.519 122.084 244.649 122.03C244.779 121.976 244.921 121.962 245.059 121.989C245.197 122.017 245.324 122.084 245.423 122.183C245.523 122.282 245.59 122.409 245.618 122.546C245.646 122.684 245.632 122.827 245.578 122.957C245.525 123.086 245.434 123.197 245.317 123.276C245.24 123.328 245.153 123.364 245.061 123.382C244.97 123.401 244.875 123.401 244.784 123.383C244.692 123.365 244.605 123.329 244.527 123.277C244.45 123.225 244.383 123.159 244.331 123.081Z" fill="#312782"/>
<path d="M207.917 98.1435L209.832 101.954L188.743 142.338L184.259 143.788L207.917 98.1435Z" fill="#312782"/>
<path d="M184.259 143.788L207.961 98.0812C199.457 103.882 190.444 112.575 187.358 119.392C183.412 128.092 182.132 134.308 184.259 143.788Z" fill="#0080C8"/>
<path d="M201.569 124.112C203.409 122.376 205.429 120.843 207.596 119.539C205.473 117.806 203.066 116.453 200.482 115.54L189.136 141.296C192.851 133.891 196.167 129.126 201.569 124.112Z" fill="#312782"/>
</g>
<g filter="url(#filter0_d_255_4967)">
<rect x="-87" y="77.4316" width="215.175" height="110.697" transform="rotate(-21.0912 -87 77.4316)" fill="url(#paint2_diamond_255_4967)"/>
<path d="M-4.44201 78.9163L-47.5777 74.2239L-71.351 100.723L-42.2076 134.808L-5.47075 124.638L30.8429 139.294L67.5798 129.124L80.9089 106.653L127.327 88.7496L123.275 52.3195L90.3262 55.0294L60.3951 37.9121L16.5131 46.8384L-4.44201 78.9163Z" fill="url(#paint3_diamond_255_4967)" stroke="white" stroke-width="2"/>
<g clip-path="url(#clip1_255_4967)">
<path d="M60.9949 59.1604L63.2422 63.0768L43.3096 107.002L38.6614 108.795L60.9949 59.1604Z" fill="#312782"/>
<path d="M38.6613 108.795L61.0452 59.089C52.3942 65.7184 43.3741 75.4362 40.5108 82.8228C36.8484 92.2505 35.8355 98.9061 38.6613 108.795Z" fill="#0080C8"/>
<path d="M4.04876 107.916L11.7465 100.771L15.589 110.554L4.04876 107.916Z" fill="#312782"/>
<path d="M26.9273 113.251L19.9351 105.775C13.7671 110.572 7.75032 109.4 4.05869 104.369C-2.86419 94.9596 -13.3223 96.3417 -19.5934 102.287C-22.4263 104.965 -26.6955 110.078 -35.2796 105.486C-40.0956 102.933 -41.9743 100.4 -44.5235 97.2064L-47.0056 105.087C-45.5521 106.728 -43.9662 108.246 -42.264 109.627C-28.2044 120.122 -21.7389 114.119 -15.7613 107.975C-11.9626 104.092 -5.53354 103.164 0.386105 110.534C5.45144 116.924 13.9834 120.886 21.665 116.711C23.5361 115.746 25.3 114.586 26.9273 113.251Z" fill="#0080C8"/>
<path d="M-42.1938 107.495C-31.1348 115.941 -24.9766 114.692 -18.1956 107.484C-11.8103 100.689 -4.0806 103.47 0.0724078 108.237C4.62762 113.508 10.1899 117.029 17.8987 113.328C19.7102 112.489 21.3749 111.365 22.8289 109.997L26.0147 112.728L19.7693 106.064C13.6012 110.861 7.58621 109.672 3.89285 104.658C-3.03004 95.2489 -13.4882 96.631 -19.7592 102.576C-22.5997 105.258 -26.8613 110.367 -35.4681 105.784C-40.2911 103.191 -42.161 100.68 -44.7329 97.4951L-46.5095 103.249C-45.2073 104.797 -43.7623 106.218 -42.1938 107.495Z" fill="#0080C8"/>
<path d="M18.0523 113.052C10.336 116.756 4.77834 113.224 0.22313 107.954C-3.92233 103.184 -11.6521 100.403 -18.0449 107.201C-24.7974 114.415 -30.9765 115.655 -42.0297 107.223C-43.5976 105.946 -45.0424 104.525 -46.3454 102.978L-47.0056 105.087C-45.5525 106.728 -43.9666 108.247 -42.264 109.627C-28.2015 120.13 -21.7465 114.122 -15.7688 107.978C-11.9701 104.095 -5.54111 103.167 0.378535 110.537C5.44387 116.927 13.9758 120.889 21.6575 116.714C23.5256 115.749 25.2869 114.591 26.9121 113.257L26.1607 112.455L22.975 109.724C21.5224 111.089 19.8605 112.213 18.0523 113.052Z" fill="#312782"/>
<path d="M22.8719 110.154C20.9705 108.123 19.5881 106.134 19.9438 105.798C20.2994 105.461 22.2289 106.936 24.1303 108.966C26.0318 110.997 27.2945 112.945 26.9423 113.245C26.5901 113.546 24.7676 112.169 22.8719 110.154Z" fill="#312782"/>
<path d="M-13.4577 100.328L-12.9446 100.13C-10.8866 99.3253 -8.64805 99.0977 -6.47047 99.4719C-4.29289 99.846 -2.25902 100.808 -0.588434 102.253C-0.496822 102.333 -0.377337 102.373 -0.256261 102.364C-0.135185 102.356 -0.0224374 102.299 0.0571765 102.208C0.136791 102.116 0.176752 101.997 0.168269 101.876C0.159785 101.755 0.103553 101.642 0.0119406 101.562C-1.77821 100.015 -3.95712 98.9859 -6.2897 98.5861C-8.62227 98.1862 -11.0199 98.4307 -13.224 99.2933L-13.7748 99.5058C-13.8691 99.5577 -13.9414 99.6419 -13.9782 99.743C-14.0151 99.8441 -14.0141 99.955 -13.9754 100.055C-13.9367 100.156 -13.8629 100.239 -13.7677 100.289C-13.6725 100.339 -13.5624 100.353 -13.4577 100.328Z" fill="white"/>
<path d="M9.91699 81.5989L17.1169 93.9512L23.7242 77.4607L9.91699 81.5989Z" fill="#312782"/>
<path d="M28.6035 61.2988L23.6953 77.3852L43.2009 69.8621L28.6035 61.2988Z" fill="#312782"/>
<path d="M64.8888 85.7075C66.6334 90.329 66.9683 95.3641 65.8511 100.176C64.7339 104.989 62.2148 109.362 58.6121 112.744C55.0095 116.126 50.4851 118.365 45.6108 119.177C40.7366 119.989 35.7312 119.338 31.2276 117.306C26.7239 115.275 22.9241 111.954 20.3084 107.763C17.6927 103.573 16.3786 98.7009 16.5321 93.7632C16.6857 88.8255 18.3 84.0439 21.1711 80.0226C24.0422 76.0014 28.0411 72.9211 32.6624 71.1712C38.8654 68.8314 45.743 69.048 51.7852 71.7735C57.8273 74.4989 62.5401 79.5104 64.8888 85.7075Z" fill="#0080C8"/>
<path d="M48.4193 112.249C37.7195 116.376 26.2478 113.782 19.5979 106.564C22.4771 111.822 27.1526 115.869 32.7704 117.966C38.3881 120.062 44.5732 120.068 50.1959 117.982C55.8187 115.897 60.5038 111.859 63.3956 106.606C66.2875 101.353 67.193 95.2361 65.9468 89.372C65.5505 98.9525 58.87 108.219 48.4193 112.249Z" fill="#312782"/>
<path d="M25.5336 79.657C21.915 83.5382 19.8612 88.6208 19.7682 93.9252C19.7563 94.1209 19.7842 94.317 19.85 94.5017C19.9159 94.6865 20.0184 94.8559 20.1514 95C20.2844 95.1441 20.4452 95.2598 20.6241 95.3402C20.803 95.4206 20.9963 95.464 21.1925 95.4678C21.3886 95.4717 21.5834 95.4358 21.7654 95.3625C21.9473 95.2891 22.1125 95.1798 22.2512 95.041C22.3898 94.9022 22.4989 94.7368 22.572 94.5548C22.6451 94.3728 22.6807 94.178 22.6765 93.9819C22.7672 89.3962 24.5498 85.0054 27.6818 81.6533C27.9467 81.3684 28.0875 80.9901 28.0734 80.6015C28.0592 80.2129 27.8912 79.8458 27.6064 79.5811C27.3215 79.3164 26.9431 79.1757 26.5544 79.1899C26.1657 79.2041 25.7985 79.3722 25.5336 79.657Z" fill="white"/>
<path d="M111.553 66.8604L90.7192 74.8958L85.8758 89.1723L109.879 79.9146L112.285 81.0748L111.553 66.8604Z" fill="#312782"/>
<path d="M72.0065 82.789L74.7124 75.2638L78.4033 76.6304L68.3426 63.4232L103.547 70.6239L72.0065 82.789Z" fill="#312782"/>
<path d="M62.3116 86.7794L65.01 79.2572L72.0682 83.0164L62.3116 86.7794Z" fill="#312782"/>
<path d="M62.0844 86.5725L88.9017 76.2293L91.6364 83.3197L64.8418 93.6542C64.2683 93.8753 63.128 92.4695 62.3832 90.5385C61.6384 88.6075 61.5034 86.7965 62.0844 86.5725Z" fill="#0080C8"/>
<path d="M104.792 70.0311L83.9588 78.0665L80.7853 87.4356L101.732 78.4813L104.895 80.8834L104.792 70.0311Z" fill="#312782"/>
<path d="M80.9259 82.6762L62.7484 89.6871C62.6755 89.7422 62.6224 89.8194 62.5973 89.9073C62.5722 89.9952 62.5764 90.0888 62.6093 90.174C62.6422 90.2593 62.7019 90.3315 62.7795 90.3797C62.8571 90.428 62.9483 90.4496 63.0394 90.4414L81.2244 83.4276C81.2892 83.4218 81.3518 83.4009 81.4072 83.3668C81.4626 83.3327 81.5094 83.2861 81.5438 83.2309C81.5781 83.1756 81.5992 83.1131 81.6054 83.0484C81.6115 82.9836 81.6025 82.9183 81.5791 82.8576C81.5557 82.7968 81.5185 82.7424 81.4704 82.6985C81.4224 82.6546 81.3648 82.6225 81.3022 82.6046C81.2396 82.5868 81.1738 82.5837 81.1098 82.5956C81.0458 82.6075 80.9854 82.6341 80.9335 82.6733" fill="white"/>
<path d="M107.184 68.5454L86.3503 76.5808L81.5069 90.8573L105.517 81.5967L107.916 82.7597L107.184 68.5454Z" fill="#0080C8"/>
<path d="M95.1264 75.8042C95.037 75.6854 94.9848 75.5427 94.9765 75.3943C94.9682 75.2459 95.0041 75.0983 95.0796 74.9702C95.1552 74.8421 95.267 74.7393 95.401 74.6748C95.5349 74.6102 95.685 74.5868 95.8323 74.6075C95.9795 74.6281 96.1173 74.692 96.2283 74.791C96.3392 74.89 96.4183 75.0196 96.4556 75.1635C96.4928 75.3075 96.4865 75.4592 96.4376 75.5996C96.3886 75.74 96.299 75.8627 96.1803 75.9522C96.1014 76.0118 96.0115 76.0552 95.9158 76.0799C95.8201 76.1047 95.7205 76.1104 95.6226 76.0966C95.5247 76.0829 95.4305 76.05 95.3454 75.9998C95.2602 75.9496 95.1858 75.8831 95.1264 75.8042Z" fill="#312782"/>
<path d="M55.1726 51.5711L57.4199 55.4875L37.4873 99.4128L32.8316 101.208L55.1726 51.5711Z" fill="#312782"/>
<path d="M32.8317 101.208L55.2156 51.5026C46.5646 58.1319 37.5445 67.8498 34.6812 75.2363C31.0188 84.6641 30.0285 91.3109 32.8317 101.208Z" fill="#0080C8"/>
<path d="M49.9809 79.3955C51.8236 77.4525 53.87 75.7133 56.0847 74.2078C53.7388 72.5004 51.1155 71.211 48.3303 70.3965L37.8423 98.288C41.3356 90.2426 44.5625 85.012 49.9809 79.3955Z" fill="#312782"/>
</g>
</g>
<g filter="url(#filter1_d_255_4967)">
<rect x="382.875" y="366.841" width="215.175" height="110.697" transform="rotate(-126.462 382.875 366.841)" fill="url(#paint4_diamond_255_4967)"/>
<path d="M362.424 286.843L369.333 329.679L401.186 345.578L426.327 308.443L406.784 275.716L411.29 236.816L391.746 204.089L366.546 197.193L336.979 157.18L302.926 170.744L314.273 201.796L305.701 235.193L325.939 275.14L362.424 286.843Z" fill="url(#paint5_diamond_255_4967)" stroke="white" stroke-width="2"/>
<g clip-path="url(#clip2_255_4967)">
<path d="M326.03 228.983L329.211 225.778L376.849 233.355L379.809 237.361L326.03 228.983Z" fill="#312782"/>
<path d="M379.809 237.361L325.948 228.953C334.633 235.538 346.394 241.659 354.276 242.462C364.337 243.495 371.023 242.707 379.809 237.361Z" fill="#0080C8"/>
<path d="M336.678 259.649L353.49 260.118L341.066 243.304L336.678 259.649Z" fill="#312782"/>
<path d="M350.596 218.192C354.59 215.284 359.356 213.627 364.292 213.429C369.228 213.23 374.113 214.5 378.329 217.077C382.545 219.655 385.903 223.424 387.978 227.909C390.052 232.394 390.752 237.392 389.986 242.273C389.221 247.154 387.027 251.699 383.679 255.331C380.332 258.964 375.983 261.523 371.181 262.683C366.379 263.844 361.34 263.555 356.702 261.852C352.064 260.15 348.034 257.111 345.121 253.118C341.221 247.757 339.607 241.068 340.633 234.52C341.66 227.971 345.243 222.099 350.596 218.192Z" fill="#0080C8"/>
<path d="M380.554 227.037C387.369 236.26 387.908 248.009 382.711 256.334C387.018 252.164 389.681 246.583 390.213 240.611C390.746 234.639 389.112 228.673 385.611 223.804C382.109 218.935 376.974 215.488 371.143 214.092C365.311 212.696 359.173 213.444 353.849 216.2C363.192 214.043 373.897 218.028 380.554 227.037Z" fill="#312782"/>
<path d="M320.054 178.192L333.324 196.151L348.374 197.037L333.085 176.347L333.566 173.719L320.054 178.192Z" fill="#312782"/>
<path d="M345.895 212.102L337.922 211.488L338.261 207.566L328.193 220.768L325.805 184.914L345.895 212.102Z" fill="#312782"/>
<path d="M352.313 220.392L344.344 219.784L346.098 211.982L352.313 220.392Z" fill="#312782"/>
<path d="M352.173 220.666L335.092 197.55L341.204 193.034L358.271 216.131C358.636 216.625 357.583 218.097 355.918 219.327C354.254 220.557 352.543 221.167 352.173 220.666Z" fill="#0080C8"/>
<path d="M324.903 183.871L338.173 201.829L348.049 202.406L333.862 184.581L335.34 180.895L324.903 183.871Z" fill="#312782"/>
<path d="M343.422 203.532L355 219.201C355.073 219.256 355.161 219.287 355.253 219.288C355.344 219.289 355.433 219.26 355.507 219.206C355.58 219.151 355.634 219.075 355.66 218.987C355.686 218.899 355.683 218.806 355.651 218.72L344.068 203.045C344.045 202.984 344.008 202.929 343.96 202.884C343.913 202.84 343.856 202.807 343.793 202.789C343.731 202.77 343.665 202.767 343.601 202.778C343.537 202.789 343.476 202.815 343.424 202.854C343.372 202.892 343.329 202.943 343.299 203.001C343.27 203.059 343.254 203.123 343.253 203.188C343.253 203.253 343.267 203.317 343.296 203.376C343.324 203.434 343.366 203.485 343.417 203.525" fill="white"/>
<path d="M322.837 181.958L336.107 199.917L351.157 200.803L335.863 180.106L336.349 177.485L322.837 181.958Z" fill="#0080C8"/>
<path d="M333.032 191.661C332.941 191.778 332.817 191.866 332.677 191.914C332.536 191.961 332.384 191.966 332.24 191.927C332.097 191.888 331.968 191.807 331.87 191.695C331.772 191.583 331.71 191.445 331.691 191.297C331.672 191.15 331.697 191 331.763 190.867C331.829 190.734 331.933 190.623 332.062 190.549C332.191 190.475 332.339 190.441 332.487 190.451C332.636 190.461 332.778 190.514 332.895 190.605C332.974 190.665 333.039 190.741 333.089 190.826C333.138 190.912 333.17 191.007 333.183 191.105C333.195 191.203 333.188 191.302 333.163 191.398C333.137 191.493 333.092 191.582 333.032 191.661Z" fill="#312782"/>
<path d="M320.256 236.608L323.436 233.404L371.074 240.98L374.039 244.994L320.256 236.608Z" fill="#312782"/>
<path d="M374.039 244.994L320.178 236.585C328.864 243.17 340.625 249.291 348.506 250.094C358.567 251.127 365.239 250.32 374.039 244.994Z" fill="#0080C8"/>
<path d="M348.461 234.239C346.099 232.978 343.88 231.465 341.841 229.729C340.817 232.443 340.269 235.315 340.222 238.216L369.895 240.936C361.212 239.7 355.313 237.975 348.461 234.239Z" fill="#312782"/>
</g>
</g>
<rect x="-35.834" y="155" width="173" height="89" transform="rotate(7.20747 -35.834 155)" fill="url(#paint6_diamond_255_4967)"/>
<path d="M22.0435 187.518L-6.70413 167.755L-33.6336 177.453L-25.9942 212.69L3.88842 219.493L24.0092 243.709L53.8918 250.512L71.8925 239.685L111.576 244.703L122.593 217.369L98.2353 206.729L83.571 183.204L49.1043 172.797L22.0435 187.518Z" fill="url(#paint7_diamond_255_4967)" stroke="white" stroke-width="2"/>
<g clip-path="url(#clip3_255_4967)">
<path d="M75.8971 198.474L75.9953 202.103L45.1427 225.6L41.1689 225.098L75.8971 198.474Z" fill="#312782"/>
<path d="M41.1689 225.098L75.96 198.442C67.3091 199.838 57.2198 203.279 52.3774 207.417C46.1914 212.695 42.9376 217.02 41.1689 225.098Z" fill="#0080C8"/>
<path d="M17.0012 211.284L25.1741 209.159L24.1655 217.549L17.0012 211.284Z" fill="#312782"/>
<path d="M8.59935 198.218L17.1158 195.502L16.7263 204.127L8.59935 198.218Z" fill="#312782"/>
<path d="M-5.19954 200.26L-1.01366 192.659L5.3557 198.732L-5.19954 200.26Z" fill="#312782"/>
<path d="M31.1635 223.78L29.0632 215.823C22.8686 216.867 19.0558 213.745 18.3602 208.776C17.0457 199.476 9.11551 196.469 2.41011 198.287C-0.616226 199.103 -5.58707 201.096 -9.91374 194.573C-12.3499 190.93 -12.7142 188.421 -13.3017 185.188L-18.0625 189.821C-17.6589 191.537 -17.115 193.216 -16.4363 194.842C-10.4836 207.631 -3.61858 205.846 2.95491 203.774C7.12393 202.474 12.029 204.267 13.4106 211.74C14.5605 218.195 19.0903 224.252 26.1198 224.223C27.812 224.254 29.5026 224.105 31.1635 223.78Z" fill="#0080C8"/>
<path d="M-15.5736 193.359C-10.9642 203.554 -6.12878 205.017 1.41878 202.499C8.52901 200.122 12.941 205.037 14.064 209.995C15.2798 215.462 17.8752 220.075 24.7429 220.393C26.345 220.49 27.9522 220.328 29.5028 219.914L30.717 223.062L28.8356 215.964C22.641 217.009 18.8363 213.874 18.1327 208.917C16.8182 199.618 8.88797 196.61 2.18257 198.429C-0.850216 199.244 -5.81461 201.237 -10.1606 194.712C-12.5863 191.038 -12.953 188.548 -13.5598 185.313L-17.0108 188.709C-16.6786 190.301 -16.1974 191.858 -15.5736 193.359Z" fill="#0080C8"/>
<path d="M24.9567 220.257C18.0825 219.938 15.4945 215.319 14.2786 209.852C13.1621 204.895 8.75012 199.98 1.63343 202.356C-5.8964 204.889 -10.743 203.411 -15.3541 193.23C-15.9772 191.728 -16.4584 190.171 -16.7913 188.58L-18.0625 189.821C-17.6593 191.537 -17.1154 193.216 -16.4363 194.842C-10.4844 207.637 -3.62501 205.845 2.94848 203.774C7.1175 202.473 12.0226 204.266 13.4042 211.739C14.5541 218.194 19.0839 224.251 26.1134 224.223C27.8034 224.252 29.4918 224.103 31.1506 223.778L30.9244 222.924L29.7101 219.777C28.1615 220.189 26.5567 220.351 24.9567 220.257Z" fill="#312782"/>
<path d="M29.4735 220.042C28.9015 217.879 28.6808 215.945 29.0608 215.842C29.4408 215.739 30.2448 217.518 30.8169 219.681C31.3889 221.843 31.5403 223.703 31.1765 223.782C30.8126 223.86 30.0472 222.191 29.4735 220.042Z" fill="#312782"/>
<path d="M7.50039 199.239L7.93905 199.294C9.70262 199.509 11.3741 200.201 12.773 201.296C14.1719 202.391 15.2452 203.847 15.8769 205.507C15.9114 205.598 15.9808 205.672 16.0697 205.712C16.1587 205.752 16.2599 205.755 16.3512 205.721C16.4425 205.686 16.5163 205.617 16.5564 205.528C16.5966 205.439 16.5997 205.338 16.5652 205.247C15.8877 203.469 14.7374 201.91 13.2386 200.738C11.7398 199.566 9.94922 198.825 8.06019 198.595L7.58928 198.536C7.50277 198.537 7.41948 198.569 7.35484 198.626C7.29021 198.684 7.24862 198.763 7.23777 198.849C7.22692 198.934 7.24754 199.021 7.29583 199.093C7.34412 199.165 7.4168 199.217 7.50039 199.239Z" fill="white"/>
<path d="M31.1863 194.89L31.5751 206.378L42.5378 197.223L31.1863 194.89Z" fill="#312782"/>
<path d="M52.1516 187.641L42.5458 197.158L59.2214 199.267L52.1516 187.641Z" fill="#312782"/>
<path d="M68.5352 218.751C68.0088 222.687 66.3267 226.379 63.7016 229.36C61.0765 232.341 57.6262 234.477 53.7869 235.498C49.9475 236.519 45.8915 236.379 42.1315 235.096C38.3714 233.813 35.0762 231.444 32.6623 228.29C30.2484 225.135 28.8242 221.336 28.5697 217.372C28.3153 213.409 29.2419 209.459 31.2326 206.022C33.2233 202.585 36.1887 199.816 39.7538 198.063C43.319 196.311 47.3239 195.655 51.2623 196.177C56.5453 196.885 61.3314 199.66 64.5699 203.892C67.8084 208.124 69.2346 213.468 68.5352 218.751Z" fill="#0080C8"/>
<path d="M46.7598 231.262C37.6124 230.106 30.4803 223.897 28.5239 216.252C28.558 221.072 30.3253 225.719 33.5031 229.344C36.6809 232.97 41.0571 235.331 45.8324 235.998C50.6077 236.665 55.4635 235.592 59.5127 232.976C63.562 230.359 66.5345 226.374 67.8874 221.748C63.9553 228.379 55.6943 232.392 46.7598 231.262Z" fill="#312782"/>
<path d="M42.9813 199.467C38.9403 200.835 35.5492 203.651 33.4616 207.37C33.3786 207.504 33.3235 207.654 33.2998 207.81C33.276 207.965 33.284 208.125 33.3232 208.277C33.3625 208.43 33.4322 208.573 33.5282 208.698C33.6242 208.823 33.7445 208.928 33.8819 209.005C34.0192 209.083 34.1708 209.132 34.3276 209.149C34.4843 209.166 34.643 209.152 34.794 209.107C34.945 209.061 35.0853 208.986 35.2064 208.885C35.3276 208.784 35.427 208.659 35.4988 208.519C37.3108 205.307 40.2463 202.878 43.7411 201.699C44.0372 201.598 44.2811 201.384 44.4192 201.104C44.5573 200.823 44.5783 200.499 44.4775 200.203C44.3768 199.908 44.1625 199.664 43.8819 199.526C43.6013 199.387 43.2774 199.366 42.9813 199.467Z" fill="white"/>
<path d="M108.753 223.195L90.9416 220.942L82.0715 229.202L102.592 231.798L103.853 233.536L108.753 223.195Z" fill="#312782"/>
<path d="M74.6863 219.397L79.47 215.102L81.562 217.476L79.4738 204.292L101.651 222.807L74.6863 219.397Z" fill="#312782"/>
<path d="M66.3024 218.527L71.0796 214.231L74.6434 219.582L66.3024 218.527Z" fill="#312782"/>
<path d="M66.2202 218.294L89.1467 221.193L88.3801 227.255L65.473 224.358C64.9827 224.296 64.7113 222.866 64.9201 221.216C65.1289 219.565 65.7235 218.231 66.2202 218.294Z" fill="#0080C8"/>
<path d="M102.758 222.862L84.9473 220.61L79.1297 226.033L97.3713 227.678L98.6948 230.584L102.758 222.862Z" fill="#312782"/>
<path d="M81.0434 222.717L65.5031 220.752C65.4305 220.763 65.3635 220.798 65.3122 220.85C65.261 220.903 65.2283 220.971 65.2191 221.044C65.2099 221.117 65.2246 221.19 65.2612 221.254C65.2977 221.318 65.354 221.368 65.4216 221.397L80.9683 223.363C81.0164 223.384 81.0686 223.393 81.1209 223.39C81.1731 223.387 81.2239 223.371 81.2693 223.345C81.3147 223.319 81.3535 223.283 81.3825 223.24C81.4115 223.196 81.4301 223.146 81.4366 223.095C81.4432 223.043 81.4376 222.99 81.4203 222.941C81.403 222.891 81.3745 222.846 81.337 222.81C81.2995 222.773 81.2541 222.746 81.2042 222.73C81.1544 222.714 81.1015 222.71 81.0498 222.718" fill="white"/>
<path d="M105.017 222.722L87.2065 220.47L78.3363 228.73L98.8631 231.326L100.118 233.064L105.017 222.722Z" fill="#0080C8"/>
<path d="M93.7151 223.265C93.6971 223.147 93.7145 223.026 93.7652 222.918C93.8159 222.809 93.8975 222.719 93.9998 222.657C94.1021 222.595 94.2205 222.565 94.3399 222.57C94.4594 222.575 94.5746 222.616 94.6709 222.687C94.7673 222.758 94.8405 222.855 94.8813 222.968C94.9221 223.08 94.9287 223.202 94.9002 223.318C94.8717 223.434 94.8095 223.539 94.7213 223.62C94.6331 223.701 94.5229 223.753 94.4048 223.771C94.3262 223.784 94.246 223.78 94.1688 223.761C94.0917 223.742 94.0189 223.708 93.9549 223.661C93.8908 223.614 93.8367 223.555 93.7955 223.487C93.7544 223.419 93.7271 223.343 93.7151 223.265Z" fill="#312782"/>
<path d="M74.6679 190.882L74.7661 194.511L43.9135 218.009L39.9333 217.505L74.6679 190.882Z" fill="#312782"/>
<path d="M39.9333 217.505L74.7244 190.85C66.0735 192.245 55.9842 195.687 51.1418 199.824C44.9558 205.102 41.7213 209.43 39.9333 217.505Z" fill="#0080C8"/>
<path d="M60.3875 208.6C62.4325 207.927 64.5441 207.476 66.6858 207.254C65.6759 205.151 64.3102 203.239 62.649 201.601L44.5936 217.348C50.1331 212.984 54.4111 210.511 60.3875 208.6Z" fill="#312782"/>
</g>
<g filter="url(#filter2_d_255_4967)">
<rect x="74" y="175.564" width="190.083" height="97.7883" transform="rotate(-8.03328 74 175.564)" fill="url(#paint8_diamond_255_4967)"/>
<path d="M144.749 193.32L108.565 180.672L82.8181 198.731L101.094 233.879L134.738 232.46L163.062 252.32L196.706 250.9L212.661 234.223L256.18 228.081L259.963 195.923L231.068 191.679L208.728 170.974L169.184 169.898L144.749 193.32Z" fill="url(#paint9_diamond_255_4967)" stroke="white" stroke-width="2"/>
<g clip-path="url(#clip4_255_4967)">
<path d="M205.003 189.379L206.155 193.198L180.235 227.019L175.877 227.634L205.003 189.379Z" fill="#312782"/>
<path d="M175.878 227.634L205.061 189.328C196.293 193.306 186.591 199.868 182.653 205.653C177.62 213.035 175.419 218.56 175.878 227.634Z" fill="#0080C8"/>
<path d="M146.267 219.97L154.318 215.357L155.672 224.543L146.267 219.97Z" fill="#312782"/>
<path d="M133.587 208.546L141.831 203.206L143.909 212.463L133.587 208.546Z" fill="#312782"/>
<path d="M119.548 214.696L121.79 205.429L130.297 210.027L119.548 214.696Z" fill="#312782"/>
<path d="M164.89 229.127L160.365 221.298C154.1 224.195 149.156 221.986 146.984 216.919C142.904 207.44 133.629 206.542 127.046 210.407C124.073 212.146 119.379 215.694 112.908 210.029C109.273 206.871 108.162 204.316 106.606 201.059L102.897 207.345C103.821 209.047 104.882 210.67 106.071 212.199C116.076 224.036 122.838 220.161 129.208 216.067C133.252 213.483 138.97 213.968 142.593 221.491C145.676 228.002 152.228 233.114 159.671 231.054C161.474 230.597 163.223 229.951 164.89 229.127Z" fill="#0080C8"/>
<path d="M106.558 210.377C114.389 219.853 119.937 220.008 127.211 215.158C134.062 210.585 140.159 214.521 142.781 219.452C145.649 224.897 149.733 229.038 157.106 227.391C158.832 227.031 160.489 226.395 162.013 225.508L164.209 228.495L160.165 221.514C153.9 224.41 148.961 222.186 146.783 217.135C142.704 207.656 133.428 206.758 126.845 210.623C123.866 212.363 119.179 215.91 112.687 210.248C109.054 207.053 107.946 204.519 106.368 201.266L103.691 205.863C104.503 207.454 105.463 208.966 106.558 210.377Z" fill="#0080C8"/>
<path d="M157.293 227.184C149.913 228.832 145.835 224.683 142.967 219.238C140.352 214.306 134.255 210.37 127.397 214.944C120.147 219.805 114.582 219.638 106.753 210.177C105.659 208.765 104.699 207.253 103.886 205.662L102.897 207.345C103.82 209.047 104.882 210.671 106.071 212.199C116.077 224.043 122.83 220.162 129.201 216.068C133.245 213.484 138.962 213.969 142.586 221.492C145.669 228.003 152.22 233.115 159.664 231.055C161.464 230.598 163.211 229.952 164.876 229.129L164.389 228.289L162.193 225.303C160.671 226.188 159.016 226.823 157.293 227.184Z" fill="#312782"/>
<path d="M162.019 225.652C160.788 223.525 159.995 221.538 160.368 221.319C160.742 221.101 162.108 222.754 163.339 224.881C164.57 227.009 165.268 228.937 164.905 229.125C164.541 229.313 163.248 227.765 162.019 225.652Z" fill="#312782"/>
<path d="M107.564 206.312C109.386 209.186 111.853 211.597 114.77 213.351C114.814 213.377 114.863 213.393 114.914 213.4C114.964 213.406 115.016 213.403 115.065 213.389C115.115 213.376 115.161 213.353 115.201 213.322C115.242 213.291 115.276 213.252 115.301 213.208C115.327 213.163 115.343 213.114 115.35 213.064C115.357 213.013 115.353 212.961 115.34 212.912C115.326 212.863 115.303 212.817 115.272 212.776C115.241 212.736 115.202 212.702 115.158 212.676C112.347 210.981 109.971 208.654 108.217 205.88C108.16 205.793 108.07 205.732 107.968 205.71C107.865 205.689 107.759 205.709 107.671 205.766C107.583 205.824 107.522 205.913 107.501 206.016C107.479 206.118 107.5 206.225 107.557 206.313" fill="white"/>
<path d="M110.979 193.648L111.108 201.823L103.944 197.843L110.979 193.648Z" fill="#312782"/>
<path d="M132.717 209.946L133.198 209.878C135.129 209.596 137.101 209.847 138.9 210.603C140.699 211.36 142.258 212.594 143.407 214.171C143.47 214.258 143.565 214.316 143.671 214.333C143.776 214.349 143.885 214.324 143.971 214.261C144.058 214.198 144.117 214.103 144.133 213.997C144.15 213.891 144.124 213.783 144.061 213.696C142.83 212.007 141.16 210.687 139.233 209.877C137.305 209.068 135.193 208.799 133.124 209.102L132.608 209.175C132.516 209.201 132.437 209.259 132.385 209.338C132.333 209.418 132.312 209.514 132.325 209.608C132.339 209.702 132.386 209.788 132.458 209.85C132.529 209.912 132.621 209.946 132.717 209.946Z" fill="white"/>
<path d="M156.57 198.494L160.3 210.56L169.277 197.688L156.57 198.494Z" fill="#312782"/>
<path d="M176.702 184.754L169.267 197.618L187.554 195.037L176.702 184.754Z" fill="#312782"/>
<path d="M203.055 213.001C203.634 217.326 202.917 221.726 200.995 225.644C199.074 229.563 196.033 232.823 192.258 235.015C188.482 237.206 184.142 238.229 179.786 237.955C175.429 237.681 171.252 236.122 167.781 233.475C164.311 230.828 161.704 227.212 160.29 223.083C158.875 218.955 158.717 214.5 159.834 210.282C160.952 206.063 163.296 202.271 166.569 199.383C169.842 196.496 173.898 194.643 178.224 194.06C184.029 193.285 189.904 194.844 194.56 198.395C199.216 201.946 202.271 207.199 203.055 213.001Z" fill="#0080C8"/>
<path d="M183.585 232.554C173.554 233.97 164.2 229.448 159.918 221.909C161.346 227.009 164.562 231.425 168.978 234.35C173.393 237.275 178.715 238.515 183.97 237.842C189.225 237.17 194.062 234.63 197.599 230.687C201.136 226.744 203.136 221.661 203.234 216.366C200.981 224.531 193.383 231.172 183.585 232.554Z" fill="#312782"/>
<path d="M170.396 199.939C166.507 202.557 163.725 206.521 162.587 211.067C162.537 211.233 162.522 211.408 162.542 211.58C162.562 211.752 162.616 211.918 162.702 212.069C162.788 212.219 162.903 212.351 163.041 212.456C163.179 212.561 163.336 212.637 163.504 212.679C163.672 212.721 163.847 212.729 164.018 212.703C164.19 212.676 164.354 212.615 164.501 212.523C164.648 212.431 164.775 212.311 164.874 212.169C164.973 212.027 165.043 211.866 165.078 211.696C166.071 207.768 168.482 204.346 171.846 202.086C172.131 201.894 172.328 201.596 172.393 201.259C172.458 200.922 172.387 200.573 172.195 200.288C172.002 200.003 171.705 199.807 171.367 199.741C171.03 199.676 170.681 199.747 170.396 199.939Z" fill="white"/>
<path d="M246.973 206.096L227.441 208.853L220.424 220.171L242.927 216.995L244.766 218.474L246.973 206.096Z" fill="#312782"/>
<path d="M209.763 211.91L213.593 205.975L216.497 207.887L210.475 194.514L239.333 207.737L209.763 211.91Z" fill="#312782"/>
<path d="M200.624 213.409L204.447 207.475L209.771 212.118L200.624 213.409Z" fill="#312782"/>
<path d="M200.469 213.186L225.611 209.637L226.549 216.285L201.429 219.83C200.891 219.906 200.19 218.469 199.935 216.658C199.679 214.848 199.925 213.263 200.469 213.186Z" fill="#0080C8"/>
<path d="M240.523 207.475L220.991 210.232L216.39 217.661L236.203 214.136L238.445 216.835L240.523 207.475Z" fill="#312782"/>
<path d="M217.461 213.593L200.419 215.999C200.345 216.031 200.284 216.087 200.245 216.158C200.206 216.228 200.191 216.31 200.202 216.39C200.214 216.47 200.251 216.544 200.308 216.601C200.365 216.658 200.439 216.695 200.519 216.706L217.568 214.3C217.625 214.307 217.683 214.302 217.737 214.284C217.792 214.265 217.841 214.235 217.882 214.194C217.923 214.153 217.953 214.104 217.971 214.049C217.99 213.995 217.995 213.937 217.987 213.88C217.979 213.823 217.958 213.769 217.925 213.721C217.893 213.674 217.849 213.635 217.799 213.607C217.749 213.579 217.693 213.563 217.635 213.561C217.578 213.558 217.521 213.569 217.468 213.592" fill="white"/>
<path d="M242.877 206.674L223.345 209.431L216.328 220.75L238.838 217.573L240.67 219.052L242.877 206.674Z" fill="#0080C8"/>
<path d="M231.052 210.514C230.999 210.394 230.983 210.261 231.005 210.131C231.028 210.002 231.088 209.882 231.179 209.787C231.269 209.692 231.386 209.626 231.514 209.597C231.642 209.568 231.776 209.578 231.899 209.625C232.021 209.672 232.127 209.755 232.203 209.862C232.279 209.969 232.321 210.097 232.324 210.228C232.327 210.359 232.292 210.489 232.222 210.6C232.151 210.711 232.05 210.798 231.93 210.852C231.85 210.887 231.764 210.907 231.677 210.909C231.589 210.911 231.503 210.896 231.421 210.865C231.34 210.833 231.265 210.786 231.202 210.726C231.139 210.666 231.088 210.594 231.052 210.514Z" fill="#312782"/>
<path d="M201.507 181.686L202.659 185.505L176.74 219.326L172.375 219.942L201.507 181.686Z" fill="#312782"/>
<path d="M172.375 219.942L201.558 181.636C192.79 185.614 183.088 192.176 179.15 197.961C174.117 205.343 171.938 210.865 172.375 219.942Z" fill="#0080C8"/>
<path d="M191.486 204.594C193.46 203.29 195.568 202.201 197.774 201.348C196.096 199.41 194.096 197.777 191.862 196.52L177.27 218.429C181.882 212.203 185.702 208.346 191.486 204.594Z" fill="#312782"/>
</g>
</g>
<defs>
<filter id="filter0_d_255_4967" x="-98" y="0" width="262.595" height="202.713" filterUnits="userSpaceOnUse" color-interpolation-filters="sRGB">
<feFlood flood-opacity="0" result="BackgroundImageFix"/>
<feColorMatrix in="SourceAlpha" type="matrix" values="0 0 0 0 0 0 0 0 0 0 0 0 0 0 0 0 0 0 127 0" result="hardAlpha"/>
<feOffset dy="11"/>
<feGaussianBlur stdDeviation="5.5"/>
<feComposite in2="hardAlpha" operator="out"/>
<feColorMatrix type="matrix" values="0 0 0 0 0 0 0 0 0 0 0 0 0 0 0 0 0 0 0.25 0"/>
<feBlend mode="normal" in2="BackgroundImageFix" result="effect1_dropShadow_255_4967"/>
<feBlend mode="normal" in="SourceGraphic" in2="effect1_dropShadow_255_4967" result="shape"/>
</filter>
<filter id="filter1_d_255_4967" x="245" y="117" width="236.904" height="258.841" filterUnits="userSpaceOnUse" color-interpolation-filters="sRGB">
<feFlood flood-opacity="0" result="BackgroundImageFix"/>
<feColorMatrix in="SourceAlpha" type="matrix" values="0 0 0 0 0 0 0 0 0 0 0 0 0 0 0 0 0 0 127 0" result="hardAlpha"/>
<feOffset dy="-1"/>
<feGaussianBlur stdDeviation="5"/>
<feComposite in2="hardAlpha" operator="out"/>
<feColorMatrix type="matrix" values="0 0 0 0 0 0 0 0 0 0 0 0 0 0 0 0 0 0 0.25 0"/>
<feBlend mode="normal" in2="BackgroundImageFix" result="effect1_dropShadow_255_4967"/>
<feBlend mode="normal" in="SourceGraphic" in2="effect1_dropShadow_255_4967" result="shape"/>
</filter>
<filter id="filter2_d_255_4967" x="64" y="144" width="221.883" height="143.392" filterUnits="userSpaceOnUse" color-interpolation-filters="sRGB">
<feFlood flood-opacity="0" result="BackgroundImageFix"/>
<feColorMatrix in="SourceAlpha" type="matrix" values="0 0 0 0 0 0 0 0 0 0 0 0 0 0 0 0 0 0 127 0" result="hardAlpha"/>
<feOffset dy="5"/>
<feGaussianBlur stdDeviation="5"/>
<feComposite in2="hardAlpha" operator="out"/>
<feColorMatrix type="matrix" values="0 0 0 0 0 0 0 0 0 0 0 0 0 0 0 0 0 0 0.25 0"/>
<feBlend mode="normal" in2="BackgroundImageFix" result="effect1_dropShadow_255_4967"/>
<feBlend mode="normal" in="SourceGraphic" in2="effect1_dropShadow_255_4967" result="shape"/>
</filter>
<radialGradient id="paint0_diamond_255_4967" cx="0" cy="0" r="1" gradientUnits="userSpaceOnUse" gradientTransform="translate(211.113 175.025) rotate(-157.521) scale(147.476 189.193)">
<stop stop-color="#FEFEFE"/>
<stop offset="1" stop-color="#A2A2A2"/>
</radialGradient>
<radialGradient id="paint1_diamond_255_4967" cx="0" cy="0" r="1" gradientUnits="userSpaceOnUse" gradientTransform="translate(78.9856 116.099) rotate(9.77002) scale(146.604 306.623)">
<stop stop-color="#AAAAAA"/>
<stop offset="1" stop-color="#D7D7D7"/>
</radialGradient>
<radialGradient id="paint2_diamond_255_4967" cx="0" cy="0" r="1" gradientUnits="userSpaceOnUse" gradientTransform="translate(59.7668 140.865) rotate(-157.521) scale(156.144 200.312)">
<stop stop-color="#FEFEFE"/>
<stop offset="1" stop-color="#A2A2A2"/>
</radialGradient>
<radialGradient id="paint3_diamond_255_4967" cx="0" cy="0" r="1" gradientUnits="userSpaceOnUse" gradientTransform="translate(-80.0788 78.0942) rotate(6.60318) scale(155.221 324.645)">
<stop stop-color="#AAAAAA"/>
<stop offset="1" stop-color="#D7D7D7"/>
</radialGradient>
<radialGradient id="paint4_diamond_255_4967" cx="0" cy="0" r="1" gradientUnits="userSpaceOnUse" gradientTransform="translate(529.642 430.274) rotate(-157.521) scale(156.144 200.312)">
<stop stop-color="#FEFEFE"/>
<stop offset="1" stop-color="#A2A2A2"/>
</radialGradient>
<radialGradient id="paint5_diamond_255_4967" cx="0" cy="0" r="1" gradientUnits="userSpaceOnUse" gradientTransform="translate(381.68 359.992) rotate(-98.7673) scale(155.221 324.645)">
<stop stop-color="#AAAAAA"/>
<stop offset="1" stop-color="#D7D7D7"/>
</radialGradient>
<radialGradient id="paint6_diamond_255_4967" cx="0" cy="0" r="1" gradientUnits="userSpaceOnUse" gradientTransform="translate(82.166 206) rotate(-157.521) scale(125.539 161.05)">
<stop stop-color="#FEFEFE"/>
<stop offset="1" stop-color="#A2A2A2"/>
</radialGradient>
<radialGradient id="paint7_diamond_255_4967" cx="0" cy="0" r="1" gradientUnits="userSpaceOnUse" gradientTransform="translate(-31.1871 158.107) rotate(34.9019) scale(124.797 261.013)">
<stop stop-color="#AAAAAA"/>
<stop offset="1" stop-color="#D7D7D7"/>
</radialGradient>
<radialGradient id="paint8_diamond_255_4967" cx="0" cy="0" r="1" gradientUnits="userSpaceOnUse" gradientTransform="translate(203.652 231.6) rotate(-157.521) scale(137.935 176.953)">
<stop stop-color="#FEFEFE"/>
<stop offset="1" stop-color="#A2A2A2"/>
</radialGradient>
<radialGradient id="paint9_diamond_255_4967" cx="0" cy="0" r="1" gradientUnits="userSpaceOnUse" gradientTransform="translate(79.8239 177.516) rotate(19.6611) scale(137.12 286.787)">
<stop stop-color="#AAAAAA"/>
<stop offset="1" stop-color="#D7D7D7"/>
</radialGradient>
<clipPath id="clip0_255_4967">
<rect width="152.717" height="76.3584" fill="white" transform="translate(104.675 130.632) rotate(-17.9244)"/>
</clipPath>
<clipPath id="clip1_255_4967">
<rect width="161.692" height="80.8461" fill="white" transform="translate(-52.0706 91.9548) rotate(-21.0912)"/>
</clipPath>
<clipPath id="clip2_255_4967">
<rect width="161.692" height="80.8461" fill="white" transform="translate(387.621 329.312) rotate(-126.462)"/>
</clipPath>
<clipPath id="clip3_255_4967">
<rect width="130" height="65" fill="white" transform="translate(-16.6426 178.594) rotate(7.20747)"/>
</clipPath>
<clipPath id="clip4_255_4967">
<rect width="142.837" height="71.4184" fill="white" transform="translate(101.16 195.033) rotate(-8.03328)"/>
</clipPath>
</defs>
</svg>
