<svg width="17" height="18" viewBox="0 0 17 18" fill="none" xmlns="http://www.w3.org/2000/svg">
<path d="M6.37508 15.75C6.76628 15.75 7.08341 15.4295 7.08341 15.0341C7.08341 14.6387 6.76628 14.3182 6.37508 14.3182C5.98388 14.3182 5.66675 14.6387 5.66675 15.0341C5.66675 15.4295 5.98388 15.75 6.37508 15.75Z" fill="white" stroke="white" stroke-width="1.8" stroke-linecap="round" stroke-linejoin="round"/>
<path d="M14.1666 15.75C14.5578 15.75 14.8749 15.4295 14.8749 15.0341C14.8749 14.6387 14.5578 14.3182 14.1666 14.3182C13.7754 14.3182 13.4583 14.6387 13.4583 15.0341C13.4583 15.4295 13.7754 15.75 14.1666 15.75Z" fill="white" stroke="white" stroke-width="1.8" stroke-linecap="round" stroke-linejoin="round"/>
<path d="M1.41675 1.43182H3.99251L5.71826 10.3786C5.77715 10.6862 5.93843 10.9625 6.17388 11.1592C6.40933 11.3558 6.70394 11.4603 7.00614 11.4543H13.2652C13.5674 11.4603 13.862 11.3558 14.0975 11.1592C14.3329 10.9625 14.4942 10.6862 14.5531 10.3786L15.5834 4.77265H4.63645" stroke="white" stroke-width="2" stroke-linecap="round" stroke-linejoin="round"/>
</svg>
