<svg width="28" height="24" viewBox="0 0 28 24" fill="none" xmlns="http://www.w3.org/2000/svg">
<path d="M2.65953 3.88776C2.70512 3.71323 2.75116 3.54951 2.79629 3.39769C4.0208 4.80338 5.51528 5.96025 7.19728 6.79839C9.30357 7.84796 11.6389 8.36533 13.9954 8.30484C14.4066 8.29428 14.7344 7.95791 14.7344 7.54659V6.28875H14.7345L14.7343 6.27848C14.7208 5.28137 15.0169 4.30353 15.5836 3.47717C16.1503 2.65071 16.9606 2.01527 17.9058 1.65811C18.8511 1.30091 19.8848 1.23968 20.8667 1.4829C21.8485 1.72611 22.73 2.26168 23.3925 3.01586C23.588 3.2384 23.8952 3.32677 24.179 3.24215C24.9787 3.00377 25.7549 2.69829 26.4996 2.32965C26.0598 3.19068 25.4801 3.97999 24.7792 4.66429C24.5968 4.84246 24.516 5.1004 24.5644 5.35081C24.6218 5.64805 24.6512 5.94987 24.6523 6.25243C24.6518 13.2149 21.3033 18.138 16.6398 20.5954C12.7157 22.6631 7.80911 23.0111 3.08064 21.2869C5.30276 20.9294 7.43297 20.096 9.31683 18.83C9.54637 18.6757 9.67376 18.4088 9.64929 18.1333C9.62482 17.8579 9.45237 17.6175 9.19924 17.5062C6.461 16.3013 4.75788 14.7427 3.71603 13.1141C2.67129 11.481 2.2618 9.73079 2.18706 8.10298C2.11216 6.47163 2.37459 4.97853 2.65953 3.88776Z" stroke="white" stroke-width="1.517" stroke-linecap="round" stroke-linejoin="round"/>
</svg>
