<svg width="31" height="31" viewBox="0 0 31 31" fill="none" xmlns="http://www.w3.org/2000/svg">
<path d="M28.6379 8.2317C28.487 7.63474 28.1796 7.08779 27.7469 6.64608C27.3141 6.20438 26.7712 5.88356 26.1731 5.71603C23.9878 5.18774 15.2465 5.18774 15.2465 5.18774C15.2465 5.18774 6.50518 5.18774 4.31985 5.76635C3.72174 5.93387 3.17888 6.25469 2.7461 6.6964C2.31331 7.1381 2.00594 7.68506 1.85501 8.28201C1.45506 10.4776 1.25943 12.7049 1.27056 14.9359C1.25631 17.1837 1.45195 19.428 1.85501 21.6402C2.0214 22.2186 2.33566 22.7448 2.76744 23.1678C3.19922 23.5909 3.73391 23.8965 4.31985 24.0552C6.50518 24.6338 15.2465 24.6338 15.2465 24.6338C15.2465 24.6338 23.9878 24.6338 26.1731 24.0552C26.7712 23.8877 27.3141 23.5669 27.7469 23.1252C28.1796 22.6835 28.487 22.1365 28.6379 21.5396C29.0348 19.3605 29.2304 17.1502 29.2224 14.9359C29.2367 12.6881 29.041 10.4438 28.6379 8.2317Z" stroke="white" stroke-width="1.517" stroke-linecap="round" stroke-linejoin="round"/>
<path d="M12.3878 19.049L19.6933 14.9359L12.3878 10.8228V19.049Z" stroke="white" stroke-width="1.517" stroke-linecap="round" stroke-linejoin="round"/>
</svg>
